<?xml version="1.0" encoding="utf-8"?>
<!-- Generator: Adobe Illustrator 21.0.2, SVG Export Plug-In . SVG Version: 6.00 Build 0)  -->
<!DOCTYPE svg PUBLIC "-//W3C//DTD SVG 1.1//EN" "http://www.w3.org/Graphics/SVG/1.1/DTD/svg11.dtd">
<svg version="1.1" id="Layer_1" xmlns="http://www.w3.org/2000/svg" xmlns:xlink="http://www.w3.org/1999/xlink" x="0px" y="0px"
	 viewBox="0 0 546 117" style="enable-background:new 0 0 546 117;" xml:space="preserve">
<style type="text/css">
	.st0{fill:#333333;}
</style>
<g>
	<path class="st0" d="M9,11.6h32.1c9.9,0,18.5,0.9,25.6,2.8c7.1,1.8,13.1,4.8,17.8,8.9c5.4,4.6,9.5,9.9,12.3,16
		c2.7,6,4.1,12.6,4.1,19.8c0,6.8-1.2,13.2-3.7,19.1c-2.5,6-6.1,11.2-10.8,15.6c-4.7,4.5-10.6,8-17.5,10.5
		c-6.9,2.6-14.9,3.8-23.9,3.8H9V11.6z M25.2,101h17.2c5.4,0,10.6-0.9,15.4-2.7c4.8-1.8,9-4.5,12.6-8c3.6-3.5,6.4-7.9,8.4-13.1
		c2.1-5.2,3.1-11.2,3.1-18c0-5.9-1-11.3-2.9-16.3c-1.9-5-4.7-9.2-8.1-12.8c-3.5-3.6-7.6-6.4-12.5-8.4c-4.8-2-10.1-3-15.8-3H25.2V101
		z"/>
	<path class="st0" d="M121,11.6h33.4c5.8,0,10.9,0.6,15.3,1.9c4.4,1.2,8,3,10.9,5.2c2.9,2.2,5.1,4.9,6.6,8c1.5,3.1,2.2,6.4,2.2,10.1
		c0,3-0.6,5.8-1.7,8.4c-1.1,2.6-2.7,5-4.8,7.1c-2.1,2.1-4.6,3.9-7.5,5.5c-2.9,1.5-6.1,2.7-9.6,3.6l35.1,46.8H182l-33.5-45.4h-11.4
		v45.4H121V11.6z M137.2,57.9h9.3c3.6,0,7-0.5,10.1-1.5c3.1-1,5.7-2.3,8-4.1c2.3-1.8,4-3.9,5.3-6.5c1.3-2.5,1.9-5.4,1.9-8.5
		c0-2.9-0.5-5.5-1.5-7.9c-1-2.4-2.4-4.5-4.2-6.2c-1.8-1.7-3.9-3.1-6.4-4.1c-2.5-1-5.2-1.5-8.2-1.5h-14.3V57.9z"/>
	<path class="st0" d="M251.6,9.4l45.4,98.7h-16.5l-14.7-32.2h-41.3l-15.2,32.2h-8.1l46.5-98.7H251.6z M227.3,69.6h35.5l-17.5-38.2
		L227.3,69.6z"/>
	<path class="st0" d="M372.7,11.6v6.2h-47v34.5h34v6.2h-34v49.5h-16.2V11.6H372.7z"/>
	<path class="st0" d="M462.3,11.6v6.2h-34.9v90.2h-16.2V17.8h-35v-6.2H462.3z"/>
	<path class="st0" d="M503.6,104.2c2.4,0,4.8-0.3,7.1-1c2.3-0.6,4.4-1.6,6.2-2.9c1.8-1.3,3.3-2.9,4.4-4.7c1.1-1.9,1.7-4,1.7-6.5
		c0-3-0.8-5.6-2.3-7.9c-1.5-2.3-3.5-4.4-6-6.3c-2.5-1.9-5.3-3.8-8.5-5.4c-3.2-1.7-6.4-3.4-9.7-5.1c-3.3-1.7-6.5-3.5-9.7-5.4
		c-3.2-1.9-6-3.9-8.5-6.2c-2.5-2.3-4.5-4.8-6-7.7c-1.5-2.8-2.3-6.1-2.3-9.8c0-3.7,0.7-7.1,2.1-10.3c1.4-3.2,3.4-5.9,6.1-8.2
		c2.7-2.3,6-4.1,9.9-5.4c3.9-1.3,8.4-2,13.5-2c9.1,0,16.4,1.9,21.6,5.7c5.3,3.8,9.1,9.4,11.5,16.6l-8.3,3.8c-1-3-2.2-5.7-3.7-8.1
		c-1.5-2.4-3.3-4.5-5.4-6.3c-2.1-1.8-4.5-3.1-7.2-4.1c-2.7-0.9-5.8-1.4-9.2-1.4c-3,0-5.7,0.4-8,1.3c-2.3,0.9-4.2,2-5.7,3.3
		c-1.5,1.4-2.6,2.9-3.4,4.6s-1.1,3.5-1.1,5.3c0,2.5,0.8,4.9,2.4,7c1.6,2.1,3.6,4.1,6.2,6c2.5,1.9,5.4,3.7,8.7,5.4
		c3.3,1.7,6.6,3.5,10,5.3c3.4,1.8,6.7,3.7,10,5.6c3.3,1.9,6.2,4.1,8.7,6.4c2.5,2.3,4.6,4.8,6.2,7.6c1.6,2.7,2.4,5.8,2.4,9.2
		c0,3.8-0.7,7.4-2.2,10.8c-1.5,3.3-3.6,6.3-6.5,8.8c-2.9,2.5-6.5,4.5-10.8,6c-4.3,1.5-9.3,2.2-15.1,2.2c-4.6,0-8.7-0.5-12.4-1.5
		c-3.6-1-6.9-2.5-9.7-4.4c-2.8-1.9-5.2-4.3-7.2-7.1c-2-2.8-3.6-6-4.9-9.6l8.7-3.6c1,3.1,2.4,6,4.1,8.4c1.7,2.5,3.7,4.6,6,6.3
		c2.3,1.7,4.8,3,7.6,3.9C497.4,103.7,500.4,104.2,503.6,104.2z"/>
</g>
</svg>
