<svg id="Layer_1" data-name="Layer 1" xmlns="http://www.w3.org/2000/svg" viewBox="0 0 297.33 768"><defs><style>.cls-1{fill:#fff;}</style></defs><title>Artboard 1</title><path class="cls-1" d="M208.53,486.28c.23.52-.45,1.28.54,1.61a11.89,11.89,0,0,0,2.72-8.75,80.29,80.29,0,0,1,.8-17.78c.24-1.57,1.41-3.05,2.35-4.44a46.53,46.53,0,0,1,6.09-7.63c1.53-1.47,3.11-3.21,4.79-4,1.84-.91,3.08-2.46,4.88-3.3a9.5,9.5,0,0,0,3.8-4c1.44-2.45,3.89-2.85,6.08-3.44,1.91-.51,5,2,4.83,4a27.7,27.7,0,0,1-.93,5.29,1.59,1.59,0,0,1-1.16,1.22c-2.94.87-5.79,2.35-8.78,2.7a25.51,25.51,0,0,0-6.78,2.27c-3.66,1.51-5.94,4.73-7,8.84-.45,1.83-.57,3.66-.84,5.47a13.1,13.1,0,0,0,.31,4.49,10.15,10.15,0,0,1,0,4.82c-.3,1.09.54,1.81.59,2.71.07,1.53.75,3,.09,4.63-.24.59.08,1.41.17,2.13.21,1.72.14,3.41-1.26,4.82a48.55,48.55,0,0,0-3.14,4.31c-.62.79-1.22.63-1.87.57-.81-.08-1.06-.87-1.13-1.48s.72-.85,1.12-1.24c2.24-2.24,4.36-4.56,4.23-8.16-.15-4.18-1-8.3-.8-12.5.11-2.64-.54-5.27-.55-7.89,0-2.17,0-4.65,2.08-6.26a4.29,4.29,0,0,0,.74-1c.36-.52.69-1.2,0-1.51s-.88.6-.94,1c-.16,1-1.16,1.35-1.6,2.14-1.58,2.82-3,5.47-3.26,9-.21,3.3-.85,6.64-.67,10a59.2,59.2,0,0,1,.28,7.25,12.28,12.28,0,0,1-2.18,6.45c-.5.69-.56,1.63-1.32,2.25-.44.36.23.7.48,1,.83,1,2.09,1.34,3.17,1.93s2.35,1,2.79,2.49c.28.93,1.18.69,1.58.21,1.66-2,4.11-3,5.93-4.72.86-.83,1.49-1.63.27-2.67a.8.8,0,0,1-.17-.5c-.25-3-1.93-5.67-1.8-8.78.14-3.43,1.38-4.85,4.7-4.65a5.31,5.31,0,0,0,3.63-.9,1.82,1.82,0,0,1,2.55.86c.61,1.18,1.57,1.42,2.72,1.72a7.73,7.73,0,0,1,4.48,3.56,52.19,52.19,0,0,0,6.18,8.34,13.34,13.34,0,0,1,3.95,9.54,8.1,8.1,0,0,0,.22,2.34c.37,1.31-1,1.81-1.51,2.74-2,3.8-5.54,4.88-9.63,4.56-.41,0-.92.16-1.2-.23-1.65-2.3-4.68-2.73-6.46-4.94s-2.52-1.86-3.66.54c-.38.8-.73,1.61-1.11,2.42-1,2.12-.86,2.82,1.43,3.69,1.47.57,2.71,1.59,4,2.1,1.9.73,3.09,2.06,4.54,3.21a2,2,0,0,1,.87,1.42c.36,2.55.92,2.93,3.33,3.11a30,30,0,0,1,4,1,29,29,0,0,1,13.56,7,21.67,21.67,0,0,1,4.77,5.92,7,7,0,0,0,1.38,1.57q4.08,4.2,8,8.61c2.65,3,3.83,6.91,5.64,10.43,1,1.95.2,4.26.93,6.4s1.92,4.31,2.87,6.47c1,2.37,2.79,4.43,3.19,7.12.11.72.14,1.33-.38,1.77-2.18,1.86-2.17,4.41-1.75,6.79a4.78,4.78,0,0,1-.94,3.54,5.7,5.7,0,0,0-1.22,2.88c.16,5.28-2.1,10.27-1.68,15.58.08,1,.35,1.88.44,2.83a49.14,49.14,0,0,1-.66,12.77,6.83,6.83,0,0,0,0,2c.29,2.21-1.3,3.75-1.94,5.62a96.76,96.76,0,0,1-6.19,14c-1.22,2.31-3.37,3.89-4.78,6-1.51,2.31-4.18,3.66-5.46,6-1.93,3.57-4.92,5.94-8,8.27-.83.63-1,1.66-1.87,2.34s-1.83,1.64-3,1.69c-2,.08-3.41,1.5-4.84,2.5-1.58,1.12-3.39,1.29-5,1.72-2.5.65-4.94,1.65-7.59,1.86a6,6,0,0,0-3.75,1.6c-1.14,1.1-2.89,1-4.22,1.91-1.81,1.23-3.88,2.1-5.64,3.4a13,13,0,0,1-2.71,1.43c-3.38,1.43-4.22,4.59-5.5,7.45-.18.41-.54,1.15.34,1.69,2.18,1.32,2.41,2.38.68,4.43-1.15,1.36-.92,2,.2,3.24a21.37,21.37,0,0,1,5.67,10.76c0,.18,0,.43.1.52,2.44,2,1.56,5.12,2.36,7.67.45,1.44.4,3,1.38,4.33a2.28,2.28,0,0,1,.15,1.42c-.18,2,.7,3.69,1.14,5.52a6.24,6.24,0,0,1-.18,3.81c-.92,2-1,4.14-1.85,6.13-1.09,2.54-2.17,5-4.51,6.71-.75.54-.93,1.55-1.51,2.14a25.42,25.42,0,0,1-8.24,5.39c-.49.21-.58.63-1,.84-3,1.5-5.93,3.24-9.37,3.81-1.91.32-3.76,1-5.67,1.41a59.13,59.13,0,0,1-8.34,1.33c-6.88.59-13.74,1.26-20.63,1.78-2.81.21-5.66-.22-8.41.71a3.07,3.07,0,0,1-1.44,0c-4.1-.71-8.23-.63-12.36-.84-2.7-.14-5.54.33-8.19-.88-.9-.41-1.92.15-3,0-3.24-.41-6.34-1.43-9.52-2.08a15.29,15.29,0,0,1-4.48-2c-1.07-.65-2.27-.54-3.33-.8-3.69-.93-7-2.83-10.72-3.71-1.42-.34-3.19-.47-4.29-1.89a1.62,1.62,0,0,0-1.32-.43c-2.22.37-3.74-.56-5.39-2-3.41-3-4.94-7-6.43-11.05a1,1,0,0,1-.12-.5c.12-.52.29-1,.47-1.63,1.71.84,1.93.4,1.7-1.45-.59-4.76.33-9.46,1.19-14.14.05-.29.23-.63.15-.87-1-3,0-6.08-.32-9.11,0-.42.07-1.05-.16-1.22-2.09-1.57-1.46-3.94-1.55-5.92-.12-2.44,0-4.93,0-7.39a45,45,0,0,0-.83-7.86c-.21-1.21-1.79-1.72-1.73-2.91s-.74-1.36-1.25-1.94a.86.86,0,0,0-1-.23c-2.26,1-4-.24-6-1-2.63-1-4.66-3.37-7.34-3.76-3.52-.51-6.09-3-9.49-3.7-2-.42-3.71-1.95-5.48-3.09-2.26-1.47-4.65-2.71-6.94-4.15-3.3-2.08-6.23-4.64-9.41-6.86-.91-.64-1.08-2.06-2-2.92a44.22,44.22,0,0,1-6.42-7.62,3.53,3.53,0,0,1-.37-1.16c-.91-2.83-3-5-4.08-7.73a12.25,12.25,0,0,1-.91-3.91,26.54,26.54,0,0,0-.84-6.91,37.28,37.28,0,0,1-1-5.56,6.42,6.42,0,0,0-.34-2.11c-1.39-3-1.41-6.26-2.24-9.36-1.17-4.41-1.71-9-3-13.33-1.05-3.62-1.71-7.38-3.28-10.87-.6-1.34-1-3.08.84-4.13a.62.62,0,0,0,.29-.77c-.74-3-.28-6.08-.51-9.07-.35-4.6.87-9.06.5-13.6-.11-1.32.65-2.25,1.08-3.36.89-2.26,1.52-4.63,2.23-7a9.93,9.93,0,0,1,2.15-4.1c1.27-1.36,1.3-3.31,1.84-5,1.25-3.9,3.07-7.63,6.1-10.26,3.47-3,6.63-6.48,10.58-8.85,3.06-1.83,5.8-4.11,8.86-5.91,3.32-1.95,7.2-2.31,10.85-3.3,1.55-.42,2.87-1.27,4.42-1.73A59.68,59.68,0,0,0,65.24,507c1.11-.48,2.13.87,3.28,1.14a.6.6,0,0,1-.24.75c-.65.29-.77,1.71-2,.89-.27-.19-.77-.27-1,.11s-.27,1,.14,1.16c1.49.64,1.76,2.23,2.68,3.29.31.36.68.4,1.22.79a20.93,20.93,0,0,0-.89-2.54,1.71,1.71,0,0,1,.61-2.47c1-.37,1.55,1.26,1.49,1.57-.62,3.17,2.51,3.35,3.91,4.69,1.24,1.19,3.13,1.89,4.53,3.11A17.27,17.27,0,0,0,86.58,523c1.73.42,3.07,1.65,4.67,2.19,3.8,1.28,6.89,4.12,10.94,4.82s8.21,1.38,12.28,2.23c3,.62,5.87,1.6,8.83,2.25,2.23.49,4.52.72,6.8,1a32,32,0,0,1,3.48.54,17.46,17.46,0,0,0,5,0c2.18-.14,4.26.56,6.41.34-3.34.82-6.71.24-10.05.23a65.6,65.6,0,0,1-10.8-.77c-3-.51-6-.75-9-1.84-2.63-1-5.65-.91-8.41-1.73s-5.76-1-8.49-2.12c-.32-.13-.83-.54-1.11,0a.65.65,0,0,0,.56.94c1.65-.09,2.5,1.56,4.07,1.78.59.08,1.52.65,2.06.66,3.68.07,6.61,2.22,9.9,3.31a49.12,49.12,0,0,0,5.88,1.31c1.9.38,3.81.66,5.72,1a71.27,71.27,0,0,0,13.74,1.2,46.39,46.39,0,0,1,11.48.57c2.14.45,4.45-.2,6.71,0,2.57.18,5.16.14,7.74.17,1.86,0,3.72.09,5.57-.06,4.51-.36,9.05-.56,13.49-1.33,4.11-.71,8.22-1.48,12.35-1.83s7.89-1.3,11.94-1.28a14.9,14.9,0,0,0,6.34-1.47,11.53,11.53,0,0,1,2.58-.62,81.6,81.6,0,0,0,15.3-4.57c2.95-1.25,6-2.73,8.29-5.3a3,3,0,0,0,.73-3,13.57,13.57,0,0,0-3.72,3.22c-1.51,1.69-3.6,2.16-5.44,3-1.67.78-3.2,1.9-5.08,2.31-3.46.77-6.61,2.55-10.23,3-2.32.26-4.7.37-6.92,1.55-1.23.65-2.93.47-4.43.57-5.47.36-10.93.87-16.36,1.69-1.92.29-3.94-.19-5.91-.17-3.58,0-7.14-.12-10.74.2a48.55,48.55,0,0,1-9.51-.57c.66-.69,1.43-.14,2.06-.27,3.8-.75,7.67-.34,11.5-.73a23.88,23.88,0,0,1,6.45.1,20.59,20.59,0,0,0,5.43,0c3.52-.35,7.12-.55,10.53-1.23,2.63-.53,5.29-.39,7.92-.92,3.74-.74,7.5-1.48,11.26-2.18a8.89,8.89,0,0,0,3.71-1.48,12.32,12.32,0,0,1,4.41-1.55c2.42-.52,4.33-2.08,6.75-2.67,1.48-.36,3.66-1.87,4.17-3.62a6.17,6.17,0,0,0-.71-4.75c-1.84-2.75-4.62-4.21-7.73-5.33a18.3,18.3,0,0,1-5.16-3.43,20.24,20.24,0,0,0-2.27-1.72c-2.74-1.68-3.33-4.76-4.83-7.23-1.34-2.2-2.76-4.06-5.47-4.74-3.15-.79-5.42-4.74-4.69-7.91a7,7,0,0,0-1-4.61,4.16,4.16,0,0,1-.32-3c.51-1.7-1.09-2.75-1-4.25a.93.93,0,0,0-.45-.06c-1.56.4-3.19-.11-4.7.26-2.69.66-5.54,0-8.11.75-2.74.84-5.35-.33-8,.23-4.13.86-8.4.21-12.59,1a76.14,76.14,0,0,1-9.43.88c-1.68.09-3.41-.42-5.05-.21-4,.52-7.94.22-11.91.42a119.7,119.7,0,0,1-17.8-.32A58,58,0,0,1,116,476.26c-2.68-.75-5.75-.73-8.46-1.49-3.86-1.1-8-1.12-11.69-2.91-1.33-.64-3-.5-4.27-1.62-.52-.46-1.11.21-1.37.79a12.23,12.23,0,0,0-.65,7.32,46.26,46.26,0,0,1,.61,10,2,2,0,0,1-.65,1.24c-2.54,3-5.71,5.3-8.8,7.67a24.72,24.72,0,0,1-2.62,1.29,13.45,13.45,0,0,0-6.21,8.33c-.1.34-.19.69-.3,1-.25.76-.58,1.7-1.53,1.35a1.93,1.93,0,0,1-1-2,6.09,6.09,0,0,1,.47-1.89c1.69-2.65,2.91-5.61,5.24-7.83a3.59,3.59,0,0,1,2.52-1.23,3.51,3.51,0,0,0,2.42-1.23c1.31-1.48,3.35-2,4.78-3.35A9.45,9.45,0,0,0,88,484.3c0-2.78-.83-5.45-.78-8.2,0-1.7-.28-3.46.55-5.08.1-.2,0-.5.14-.7.31-.57-.86-1.31,0-1.56s1.5-.82,2.42-.25c.4.25,1,.12,1.55.16.13-.72-.24-.83-.68-1-1.81-.55-3.42-1.34-4.08-3.34-.35-1-.51-2,.44-2.77a6.67,6.67,0,0,0,.76-.79c1-1.17,1.27-2.45,0-3.54-1.69-1.5-1.79-3.6-2.15-5.51a50.11,50.11,0,0,1-.45-6.41,2.87,2.87,0,0,0-.71-1.93c-1-1.14-.45-2.71-.41-4,.09-3.38.66-6.74,0-10.14a1.94,1.94,0,0,0-1.09-1.59,7.32,7.32,0,0,1-3.9-5.86c-.05-2-1.11-2.54-2.41-3.17-1.61-.78-1.87-1.72-.72-3,.41-.46,1-.74.64-1.66-.1-.23.7-1.28,1.82-1.23,1.46.08,2.92.41,4.28-1,2.07-2.17,2.44-3.45.85-6.22a1.55,1.55,0,0,1,1.27-2.24c3-.49,6,.31,9,.57,3.68.32,7.26,1.37,11,1.57a24.82,24.82,0,0,1,6.87,1.22c2.6.92,5.2.11,7.76.61,1.7.33,3.6-.18,5.14.21a47.07,47.07,0,0,0,9.12.85,53.45,53.45,0,0,0,9.72-.07c1.9-.25,3.89.23,5.86.19a38.15,38.15,0,0,0,6.44-.69c1.76-.33,3.55.29,5.38,0s3.58,0,5.19-1.07a2.1,2.1,0,0,1,1.26-.07c3.36.41,6.74-.35,10.15.58,2,.54,4.27-.43,6.45-.22,1.07.1,1.93.29,1.57,1.73a5.27,5.27,0,0,0-3.9.32c-1.28.55-3,.05-4.57-.07-2.51-.19-5.13-1-7.49-.52-1.91.4-3.84.22-5.7.74-3.3.93-6.76,0-10.09.71a1.6,1.6,0,0,1-1.91-1.1c-.47,2.17-2,1.81-3.22,1.82-3,0-6.1-.19-9.15-.25-1.84,0-3.69.18-5.51.17-1,0-2.22-.42-3.33-.52-3.59-.33-7.18-.61-10.77-.79a98.3,98.3,0,0,1-14.2-1.94,49.89,49.89,0,0,0-5.64-.48c-2.08-.18-3.91-1.19-6-1.3-1.33-.08-2.64-.53-4-.63-1.93-.15-3,.85-3.23,2.81a11.59,11.59,0,0,1-.59,2.37c-.53,1.43.23,2.08,1.43,2.33s2.39.22,3.47,1.32c.58.59,2.19.46,3.3.57,3.33.35,6.56,1.19,9.84,1.63,3.73.5,7.58.19,11.37.1a10.58,10.58,0,0,1,3.38.56c2.9.91,5.9.45,8.8,1,3.4.61,6.85.85,10.27,1.32a30.07,30.07,0,0,0,8.48.3,61.35,61.35,0,0,1,10.94-.05,45.53,45.53,0,0,0,11.41-.66c1.47-.31,3.14,0,4.75-.07,4-.19,7.92-1.15,11.88-1.74,2-.3,3.91-1.24,5.78-1.28s3.49-.48,5.17-.23c1.83.27,3.54-.19,5.3-.24a24.79,24.79,0,0,0,8.07-1.27c1.46-.55,1.55-1.31,1.11-2.5a2.87,2.87,0,0,1-.16-2.62c.54-.95-.56-1.74-.88-1.83-1.54-.42-3-1.28-4.77.07-1.31,1-3.26.66-4.91,1s-3.37.1-4.84,1.13c-2-1.33-4.23,1.1-6.37-.25-.52-.33-1.5.5-2.4.06-.51-.25-1-.28-.91-1s.62-.67,1.06-.62c1.72.17,3.52-1,5.17.29,2.17-1.42,4.72-.92,7.08-1.37a74.73,74.73,0,0,0,7.79-2.15c.46-.14.86-.35,1.28-.51,1.08-.42,2.14-.74,3.08.62a9.65,9.65,0,0,1,2.06,6.15c0,.49,0,1,0,1.46,0,1.61.43,2.65,2.49,2.48,2.23-.19,3.07,1.06,2.26,2.81-.15.32-.29.56-.59.56-1.61,0-1.67,1.24-2,2.35-1.16,4.07-3.68,7.52-5.27,11.41-1.15,2.82-.54,5.63-.18,8.45.3,2.31.83,4.59,1,6.91a24.32,24.32,0,0,1-2,12.91,1,1,0,0,0,.3,1.4,3.9,3.9,0,0,1,1.07,4.58c-.66,1.6-.38,3.51-1.85,4.89-.52.49-.86,1-1.62,1.21-1.44.37-1.71,1.49-1.22,2.7a10.19,10.19,0,0,1,.73,3.51,80.29,80.29,0,0,0,1.29,8.64Zm16.19-37.48c.25,0,.76.25.39-.38l.41.1s0-.1,0-.1l-.34,0c0,.21-.14.38-.39.37-.08.22-.37.44,0,.64-.35-.39-.71-.09-1.07,0-.2.6-1.12.58-1.15,1.54.53-.55,1.76-.29,1.16-1.56.32.79.69,0,1,0C224.8,449.23,224.95,449,224.72,448.8ZM71.82,516.91c-.16-1.24-1.1-1.44-2.2-1.79.95,1.74.95,1.74,2.23,1.75a.41.41,0,0,0-.1.44c.34,1.57,2.06,1,2.79,1.83,1.27,1.41,3.22,1.51,4.66,2.57C77,519.72,74.76,517.78,71.82,516.91Zm104-42.88c-.49,0-.69-.6-1.28-.53-3.22.38-6.44.62-9.7.69-2.89.06-5.62-.44-8.43-.62s-5.83-.82-8.66-.66a97.54,97.54,0,0,1-10.1-.38c-.63,0-1.17.44-1.87,0a8.74,8.74,0,0,0-5.38-.87,121,121,0,0,1-13.62.64c-5,.07-9.78-1.38-14.63-2.36a14.73,14.73,0,0,0-5.61-.43,2.54,2.54,0,0,0,1.7.94,46.83,46.83,0,0,1,7.24,1.68,59.59,59.59,0,0,0,9.15,1.83c2.28.31,4.51,1,6.89,1,.89,0,1.91-.71,2.63-.15,1.84,1.44,4,.9,6,.93,3.25.05,6.49.57,9.79.23,3-.31,6.07-.23,9.11-.28a35.64,35.64,0,0,1,3.87.09,34.4,34.4,0,0,0,5.08-.25c3.81-.23,7.62-.26,11.42-.77a16.26,16.26,0,0,1,5.42-.14c.71.14.86-.17,1-.68a3.34,3.34,0,0,0,2.36.3,14.51,14.51,0,0,1,4.51-.45c2.26.17,4.48.56,6.7-.34.36-.15.88.09.81-.56s-.52-.48-1.05-.46c-1.95.07-3.86.4-5.84.33C180.79,472.75,178.15,472.72,175.81,474Zm-125.34,40a6.5,6.5,0,0,0-4,.66c-5,2.25-9.25,5.82-13.75,8.93a62.12,62.12,0,0,0-6.76,6.09,25.84,25.84,0,0,0-5.33,6.88c-1.47,2.77-1.33,6-3.4,8.67-1.55,2-2.05,4.81-2.93,7.3-.69,2-1.74,3.94-1.78,5.93-.11,5.14-1.37,10.2-1,15.35.16,2.35-.24,4.93,2.31,6.51a6.68,6.68,0,0,1,2.1,2.06A15.2,15.2,0,0,0,20.6,587a18.12,18.12,0,0,1,3.34,2.73,9.25,9.25,0,0,0,5,3c2,.34,3.54,1.37,5.3,2,1.15.44,2,1.32,3.15,1.74,2.27.81,4.75.46,6.91,1.49a16.87,16.87,0,0,0,6,1.49c2.14.18,4.54.24,6.31,1.25,2.57,1.47,5.25,1,7.75,1a95.91,95.91,0,0,1,11.66.69c1.27.19,2.54.76,3.81.62,5-.54,9.88.25,14.69,1s9.76-.45,14.57.54a1.4,1.4,0,0,0,.36,0c1.88-.12,3.77-.41,5.65-.35,5,.17,10,.68,15,.93,2.87.14,5.79.16,8.67.47a105.88,105.88,0,0,0,13.84.08c2.73-.07,5.42-.6,8.16-.42,2.06.13,4.11-.39,6.2-.33,2.39.07,4.8-.06,7.2-.1,2.69-.06,5.39-1,8-.88s5.13-.8,7.84-.5c4.65.51,9.33-.45,14-.85,5.36-.46,10.77-.53,16.06-1.59,3.37-.68,6.83-.64,10.18-1.32,4.57-.93,9.08-2.11,13.63-3.13a55.12,55.12,0,0,1,7.51-1.55,6.17,6.17,0,0,0,3.37-1c1.28-1.1,2.91-1.25,4.26-1.67,2.12-.66,4.47-.69,6.58-1.64s4.43-2.18,6.67-3.22a17,17,0,0,0,4.2-3.06c1.62-1.5,3.31-2.9,4.33-5,1.27-2.66.7-5.32.48-7.94-.16-2,.09-4.12-1-6a20.35,20.35,0,0,1-2.88-9.85,1.62,1.62,0,0,0-.3-1,58.76,58.76,0,0,1-3.22-6,23.75,23.75,0,0,0-4.11-6.27c-1.23-1.18-2.44-2.38-3.63-3.6-3.47-3.56-5.64-8.2-9.91-11.17a40.51,40.51,0,0,0-9.7-5.24c-1-.34-1.51-.17-2.17.83-1.1,1.67-2.15,3.61-3.93,4.57-4.68,2.52-9,5.59-14.55,6.56-3.42.6-6.85,1.65-10.25,2.61-1.25.35-2.36,1.12-3.68,1.2q-7.1.41-14.13,1.47a82.36,82.36,0,0,1-10.14,1.37c-2.93.07-5.68.93-8.53,1.26s-6,.09-8.89.4a73.07,73.07,0,0,1-11.17.1c-4.93-.25-10,.48-14.83-.91-1.78-.51-3.52.47-5.3.29-1.12-.11-2.22-.46-3.34-.46-2.64,0-5.17.35-7.92-.25-4.69-1-9.57-1-14.25-2.45a32.93,32.93,0,0,1-6.75-2.53c-.5-.28-1.42-1.19-2.18,0a.94.94,0,0,1-1.45-.06c-1-1.17-2.59-1.37-3.84-1.8-3-1.05-5.16-3.84-8.62-4.15a18.06,18.06,0,0,1-4-1.41c-1.88-.69-4.18-.88-5.52-2.3S77.67,525,76.92,523c0-.11-.32-.13-.48-.2-3.53-1.56-7-3.25-9.74-6.06-1.58-1.61-3.87-2.87-4-5.38-.08-1.89-1.14-1.45-2-1.18a45.87,45.87,0,0,0-6.51,2.56C52.93,513.36,51.6,514.12,50.47,514.06ZM73.89,676.7a1.78,1.78,0,0,0-.18-1.4.9.9,0,0,1,.65-1.28.77.77,0,0,1,1,.76c0,1.72,1.61,1.52,2.53,2.11.28.18.89,0,1,.25,1.39,2.36,4.09,2.67,6.2,3.66,2.94,1.39,6.35,1.75,9.5,2.74,1.61.51,3.37.23,4.89,1.28a7.18,7.18,0,0,0,3.34,1.13c2.31.2,4.64.23,6.79,1.21,2.37,1.08,5,.43,7.4,1.09,3.62,1,7.41,1,11,1.91a29,29,0,0,0,7.08,1c3.62,0,7.11.94,10.81.67,2.73-.2,5.71.46,8.56.33,3.37-.15,6.69-.92,10.07-1.16,2.2-.16,4.33-.88,6.6-1,3.83-.28,7.52-1.65,11.37-2.17,4.05-.55,7.94-2.06,12.07-2.51,4.47-.49,8.57-2.29,12.58-4.25a1.44,1.44,0,0,0,.94-1.18c.21-1.2.94-1.22,1.75-.56a1.87,1.87,0,0,0,2.85-.54,2.65,2.65,0,0,1,1.92-1.28c2.86-.55,4.87-2.75,7.47-3.84s4.79-2.36,7.24-3.44c1.46-.64,3-.37,4.37-.83,2.91-.94,5.85-1.76,8.68-3,3.31-1.41,6.6-2.71,9.36-5.15a46.68,46.68,0,0,0,7.73-8c2.38-3.42,5.52-6.14,8-9.49,2.24-3.05,4.4-6,5.58-9.68,1-3.16,2.66-6.1,3.47-9.35.17-.66,1.17-.83,1.19-1.73a63,63,0,0,1,.85-9.8c.45-2.48-.32-4.88-.37-7.33A64.27,64.27,0,0,1,279.77,591c.07-.32.54-.68.07-.94s-.64.15-1,.46a8.22,8.22,0,0,1-2.59,1.84c-3.25,1.19-5.9,3.4-8.95,4.93-1.65.83-3.66,1.13-5.09,2.05-3.39,2.18-7.16,3.23-10.86,4.44a108.26,108.26,0,0,1-14.67,3.73c-3.42.6-6.89.78-10.32,1.37-2.7.46-5.44.85-8.14,1.32-4.44.78-8.7,2.39-13.24,2.87s-9.2,1.26-13.85,1.4a42.77,42.77,0,0,0-7.59.49c-4.38.94-8.81.87-13.22,1.16-2.74.18-5.48-.28-8.19-.06-3.5.28-7,0-10.48.21a46.62,46.62,0,0,1-5.74,0c-4.19-.23-8.31.75-12.45.64a21.88,21.88,0,0,0-4.24-.14c-2.87.59-5.78.35-8.64.69-3.77.45-7.68,0-11.54.25-4.73.29-9.5.21-14.25,0-3.28-.12-6.55-1-9.83-1-5.68,0-11.33-.61-17-.57-3.12,0-6.26-.94-9.36-.84S53,615.12,50.75,613c-.2-.19-.55-.22-.81-.36-2.27-1.18-5-.29-7.25-1.56a7.56,7.56,0,0,0-2.5-1c-2.79-.41-5.53-.2-8-2.44-1.61-1.45-4.13-2.15-5.84-3.75-2.51-2.35-5.52-4.06-8-6.43-1.07-1-1.89-2.68-4-2.66a26,26,0,0,0,.88,5.17c1.36,3.52,1.17,7.37,2.54,10.86.75,1.89.59,4,1.34,5.9,1.86,4.71,2.23,9.74,3,14.67.62,3.76.9,7.59,3.43,10.72a2.57,2.57,0,0,1,.59.88,17.17,17.17,0,0,0,4.19,6.9c.83.86,1.69,1.69,2.48,2.6,2.2,2.53,4.39,5.1,7.35,6.87a69,69,0,0,1,6.24,3.93c3.14,2.38,6.7,3.87,9.93,6,1.54,1,3.4.66,4.85,1.74a4.53,4.53,0,0,0,2.11,1.27C67.22,672.85,70.32,675.35,73.89,676.7ZM95.48,422.27c1.52-.89,2.46.73,3.59.6,1.87-.22,3.56.66,5.41.51s3.88.89,5.89.67a44.07,44.07,0,0,1,10.28,0c3.2.4,6.47.29,9.65.81,3.57.59,6.95,1.66,10.73,1.68,3.57,0,7.16-.08,10.73-.15,2.55,0,5.17-.48,7.65-.32a72.34,72.34,0,0,0,7.65,0c4.36-.17,8.71-.75,13.08-.58,5.4.21,10.73-.69,16.07-1.22a21.59,21.59,0,0,0,6.15-1.49,69.76,69.76,0,0,1,8.2-2.68c1.12-.31,2.51.1,2.48-1.81,0-.4.67-.7,1.26-.87a1.92,1.92,0,0,0,1.47-1.65.49.49,0,0,0-.26-.4c-.89-.13-1.35.57-1.7,1.15s-1,1-1.35.34c-.86-1.83-2.39-.92-3.63-1.1-.67-.1-1.07.66-1.82.68-3.49.08-7,.06-10.47.25-4.75.26-9.27,1.71-14,2.14-3.09.29-6.11,1.08-9.23,1.33s-6,.06-8.93.43a49.75,49.75,0,0,1-9.88.09,37.87,37.87,0,0,0-8.34-.07c-4.44.68-8.65-.46-13-.8-2-.16-4-.86-5.87-.65-3.46.39-6.73-.63-10.09-.8-2.55-.13-5.21-.6-7.76-.65s-5.13-.2-7.68-.39c-2.34-.17-4.53-1.14-7-1-1.51.08-3-1.07-4.68-.3-.11.05-.37-.06-.49-.17-1.67-1.5-3.4-2-5.29-.39a.62.62,0,0,1-.82.08c-.42-.27-.2-.55-.1-.9s.56-.56.13-1.08c-1.19.81-2.68,1-3.86,2-.37.3-1.28.15-1.2.82s.73,1.13,1.47,1.41c3.7,1.42,7.64,1.93,11.43,3,1.45.42,2.93.9,3.76,2.5a4.76,4.76,0,0,1-1.81-.07c-2.37-.39-4.54-1.44-6.89-1.91-1.66-.33-3.7,0-4.84-1.85a.36.36,0,0,0-.33,0c-.1.12-.21.34-.16.43,1.22,2.11,1.18,5.1,4.17,6,.27.08.33.24.42.49,1.37,3.72,1.34,7.63,1.35,11.49a22.84,22.84,0,0,0,.55,6.87,29.27,29.27,0,0,1,1.08,6c.21,2.07.32,4.35,2.38,5.89.08-.75,2.08-.77.55-2.09-.36-.31,0-1,.53-1.14s1.48-.49,1.82-.21a1.83,1.83,0,0,1,.48,2c-1,2.13.54,2.55,1.88,3a45.45,45.45,0,0,0,12.12,2.14c4.31.27,8.61.76,12.93,1,3.3.19,6.52.9,9.79,1.27a45.26,45.26,0,0,0,9.34.57,31.38,31.38,0,0,1,7.75.36c4.24.72,8.5-.34,12.8-.09a166.14,166.14,0,0,0,19.39-.18c6.74-.4,13.52.3,20.25-1.06,3.29-.67,5.28-2.71,7.54-4.84-2.42-1.19-2.44-1.37-.82-4,1.13,1.28,1.43.8,1.82-.62.45-1.66,0-3.28.21-4.92.07-.63.31-1.95-1.07-2.08-.48,0-1.08.09-1-.66.06-.58-.42-1.38.55-1.69.73-.24.92-.72.91-1.51,0-3.12-1-6.16-.74-9.29.08-.88-.59-.78-1-.93-1.36-.48-1-1.68-.7-2.41.21-.56,1-1.7,2.06-.62.46.45.84.28,1.14-.27,1-1.89,2.1-3.76,3.14-5.65a.74.74,0,0,0-.1-1c-.34-.25-.66,0-1,.13-.77.23-.57.83-.58,1.33,0,.69-.52.91-1,1.13s-.67-.25-.87-.59-.58-.43-1.09-.51c-1.51-.24-2.33.92-3.51,1.31-1.42.47-3,0-4.36.73a7.59,7.59,0,0,1-4.6.9c-2.65-.31-5.2.52-7.71,1.07-1.67.37-2.93-.65-4.65-.27-4.42,1-9-.22-13.57.73-2.84.59-5.91.06-8.87.12-5.17.1-10.36.08-15.51.47-4.3.32-8.5.53-12.52-1.39a2.61,2.61,0,0,0-1.05-.12,37.21,37.21,0,0,1-5.91-.12,28.39,28.39,0,0,0-5.15-.68c-.92,0-2.11.23-2.72-.24-1.24-1-2.45-.14-3.64-.28-1.61-.19-3.37.71-4.94.44-2.88-.5-5.76-.47-8.64-.71C98.67,425,96.59,424.33,95.48,422.27Zm9.13,325.13a9.87,9.87,0,0,0-.48-5.48c-.88-1.92.13-3.51-.14-5.23-.09-.56-.8-.45-.7-1.26a21.34,21.34,0,0,0,.34-5.88,7.8,7.8,0,0,1,.12-2.88,6.62,6.62,0,0,0-.09-3c-.37-1.84-1.79-3.08-2.4-4.82-.53-1.49-3.41-1-4.18.58-.18.38-.22.82-.68,1-1.51.49-1.8,1.77-2.26,3.08s0,2.74.11,4.12c.36,3.58-.67,7.26.83,10.78.48,1.12-.43,2-1.62,1.74a2.49,2.49,0,0,1-1.93-2.64c-.13-3.51.35-7.05-.29-10.52a10.39,10.39,0,0,1,.12-5.14c1-3.17,3.57-5.19,6.32-6.87.91-.56,5,.56,5.55,1.23,1.69,2,2.14,4.54,3.22,6.81a3.36,3.36,0,0,1,.36,2.78c-1.15,2.44.63,5.09-.61,7.51,1.39,3.34-.14,7.28,2.14,10.46.17.23,0,.57-.2.84-1.08,1.43.53,3.1-.35,4.58,0,.07.4.61.58.6,1.72-.16,2.86,1.53,4.65,1.32.86-.1,2,.89,2.64.59.8-.38.69-1.79.91-2.71.79-3.36,1.57-6.7,1-10.29-.46-3-.7-6.19.62-9.18.93-2.1,2.64-3.8,3.15-6.13.14-.63,1-.69,1.37-.67,2,.13,4.07-.72,6.14.5.84.49,1.21,1.43,2.19,1.69,2.4.62,3,3,3.21,4.71a46,46,0,0,0,1.09,7.38,16.14,16.14,0,0,1,.1,7.91c-.64,3.06,1.24,5.95.71,9-.08.48.32.68.85.63a102.2,102.2,0,0,1,10.31-.16c2.43,0,4.86.25,7.3.34.49,0,1.39.33,1.09-.81-.72-2.71-.13-5.4,0-8.11a20.7,20.7,0,0,0-.83-7.69,7,7,0,0,1,.15-5.39c.68-1.79.4-4.51-.88-5.18-1.61-.84-3.5-1.65-5.24-.79a6.59,6.59,0,0,0-3.16,4.86c-.43,2.17-.25,4.46-.61,6.66-.45,2.78.33,5.51.09,8.25-.17,1.87.18,3.71.15,5.57,0,.76-.49,1.59-1.2,1.57A1.43,1.43,0,0,1,142.7,752c.15-1-.42-1.9-.37-2.85.24-5.23-.82-10.49.34-15.68.88-3.94,1.2-8.22,6-9.83,1.72-.57,3.22-1.46,4.63.42a2.53,2.53,0,0,0,1,.7,5.94,5.94,0,0,1,3.53,7.1,12.51,12.51,0,0,0-.31,4.91c.17,1.36,1,2.43.94,3.94-.24,3.53-.11,7.08,0,10.63.06,2.47,1,3.31,3.43,3.41a78.42,78.42,0,0,0,9.29,0c4.64-.35,9.17-1.27,14.3-1.56-2-1.34-1.35-3.15-1.78-4.63-.73-2.56-.63-5.32-1.2-8-.62-2.88-.31-5.88-1.09-8.73A10.09,10.09,0,0,0,180,728c-1.39-1.77-4.3-2.57-5.81-1.52-2.9,2-3.16,5-2.71,8a96.05,96.05,0,0,1,.88,9.63c0,.94-.19,1.86-.2,2.79,0,2,1.17,3.53,1.24,5.37,0,.51.49,1.48-.25,1.53s-1.81.69-2.39-.66a9.83,9.83,0,0,1-1-4.23,58,58,0,0,0-1.23-14.77,10.47,10.47,0,0,1,1-7c.89-1.81,2.36-4,5.18-4,1.81,0,3.57-.09,5,1.13,2.13,1.79,3.75,3.83,4.07,6.82.25,2.25,1.44,4.43,1.53,6.66.11,2.94.85,5.76,1.07,8.65.14,1.85,1.53,3.37,1.07,5.33,2.2-.69,3.79-2.32,6-2.87.52-.13,2.5,0,1.88-1.86-1.29-3.93-1.24-8.09-1.71-12.13a74,74,0,0,1-.53-14.38,9.33,9.33,0,0,1,2-5.58c1.16-1.33,2.18-3.23,4.54-2.63a.61.61,0,0,0,.35-.09c2.87-1.33,4.21-.9,6,1.64.53.74.83,1.75,1.84,2.14a1.6,1.6,0,0,1,.93,1.65c-.16,2.59.78,5,1,7.56A64.68,64.68,0,0,0,212.74,739c1.17-1.72,1.77-3.61,2.88-5.26a10.16,10.16,0,0,0,2.07-5.6c.08-2.87.52-5.65-.43-8.49-.8-2.38-.67-5-1.34-7.38-.88-3.05-2.14-6-3.26-9-.36-1-1.08-2.07-2.44-.79-.35.33-1,.33-1.52.49-2,.62-4,1-6,1.84-2.41,1-4.86,1.95-7.3,2.8a21.79,21.79,0,0,1-5.82.73c-3.11.16-5.88,1.58-8.94,1.87-1.72.16-3.6,0-5.14.66-4.25,1.72-8.76,1.22-13.11,1.76-3.63.45-7.48.35-11.2.51-4.63.2-9.27.29-13.9.44-4.42.15-8.81-.42-13.21-.5a59.58,59.58,0,0,1-10.54-.69c-3.13-.63-6.29-1.09-9.43-1.65-5.23-.94-10.49-1.66-15.52-3.46-1.25-.45-2,0-1.79,1.44.11.89.09,1.79.21,2.7.16,1.23.95,2.51.59,3.6-.47,1.45-.36,3-.78,4.35-.52,1.7.43,3.37-.09,5a13.34,13.34,0,0,0-.67,5.79c.47,3.78,1.8,7.23,4.94,9.44C95.27,742.52,99.54,745.55,104.61,747.4ZM280.34,583.8c-.28.07-.44.06-.5.14a26.36,26.36,0,0,1-11.93,7.62c-2.65.82-5.44,1.38-8,2.32-3.73,1.37-7.59,2-11.38,3a138.08,138.08,0,0,1-13.87,3.22c-2.6.4-5.34.48-7.92,1.42a8.57,8.57,0,0,1-3.4.67c-3.45-.25-6.8.66-10.23.78-3.25.11-6.48.77-9.72.79-3.75,0-7.39,1.12-11.17.86a46.45,46.45,0,0,0-7,.33c-4.7.4-9.37,1-14.1,1.12-3.53.06-7,1.07-10.57.68a24.87,24.87,0,0,0-5.65.21,63.21,63.21,0,0,1-8.67.29c-3.81-.07-7.62.19-11.44,0-3.08-.19-6.15-.44-9.27-.34-2.83.09-5.77-.62-8.59-.65-4.41,0-8.84-.17-13.27.12a57.65,57.65,0,0,1-13.91-.65,34.82,34.82,0,0,0-8.19-.74,9.72,9.72,0,0,1-2.37,0,74,74,0,0,0-12.57-1.13c-3.59-.07-7.18.25-10.76-1.14a24.39,24.39,0,0,0-5.19-1.14c-2.13-.3-4.42.22-6.48-1.19a6.45,6.45,0,0,0-3.28-1.06,14.26,14.26,0,0,1-6-1.76c-1.61-.75-3.1-1.87-4.78-2.35-2.6-.76-5.22-1.35-7.42-3.05-1.67-1.3-3.24-2.73-5-3.94-.83-.58-2.27-1.11-2.43-1.6-.6-1.76-2-2.43-3.59-3.83.32,1.28.42,2.12.58,2.9.56,2.73.64,5.81,4.07,6.91.42.13.73.61,1.08.95,1.55,1.49,2.92,3.24,4.69,4.39s3.15,2.4,4.81,3.41,3,3.42,5.59,3c.14,0,.35.3.52.47,1.4,1.34,2.76,2.56,4.91,2.82a23.34,23.34,0,0,1,6.26,1.34,18,18,0,0,0,4.15.9c1.83.3,3.83.33,5.17,2.11a3.23,3.23,0,0,0,2.12.77c4.37.38,8.74.64,13.1,1,.75.07,1.33-.62,2.08-.23,2,1,4.14.59,6.21.82,2.85.31,5.76-.06,8.63.12,3.23.2,6.43.79,9.65,1,2.07.16,4.14-.44,6.27-.25.83.07,1.43.68,2.34.5,2.66-.5,5.42,0,8.09-.58,3.07-.66,6.12.24,9.21.11,4.3-.18,8.55-.89,12.9-.66,3.6.19,7.24-.37,10.86-.53,2-.09,4.12.34,6.13.25,5.53-.25,11.06-.38,16.59-.27,2.17,0,4.34-.31,6.47-.21a34.44,34.44,0,0,0,8.89-.57c1.55-.33,3.09-.87,4.73-.39,2.55.75,5.15-.15,7.57-.47,2.84-.38,5.77-.25,8.64-1.09a33.69,33.69,0,0,1,5.91-.77c3.56-.35,6.7-2.18,10.4-2.16,2.09,0,4.15-1.18,6.57-1.06s4.86-.88,7.31-1.31c3.24-.56,6.41-1.49,9.63-2.19,3.05-.66,6-1.84,8.94-2.72a97.68,97.68,0,0,0,11.41-4.68,29.34,29.34,0,0,0,5.48-2.77,47.34,47.34,0,0,1,6.1-3.75C278.35,588.63,280.37,587.09,280.34,583.8Zm-195,111.68c1.64-2,2.66-4.23,4.93-5.56,1.91-1.12,4.53-.89,5.32.8a10.52,10.52,0,0,1,.66,6.54,4.89,4.89,0,0,1-5,4.25,6.12,6.12,0,0,1-4.75-2.77c-.21-.27-.24-.74-.74-.6s-.19.61-.24.87c-.59,2.78,1.31,5.12,4.31,5.7a25.87,25.87,0,0,1,5.49,1.59,3.81,3.81,0,0,0,1.73.56,17.08,17.08,0,0,1,6.16,1c4.08,1.25,8.24.92,12.31,1.61a30.68,30.68,0,0,0,8.35.7c3.86-.38,7.66.85,11.65.62,4.14-.24,8.36.14,12.56-.19,3.16-.25,6.34-.19,9.5-.44,5-.4,9.9-.87,14.84-1.45a67.38,67.38,0,0,0,9.19-1.46c2.85-.75,5.58-1.92,8.67-1.86,1.77,0,3.77.11,5.36-1s3.75-1.38,5.58-2.18c2.19-1,4.43-1.82,6.64-2.72a.84.84,0,0,0,.62-1,1.23,1.23,0,0,0-.49-.94c-.43-.28-.65.15-.87.4-1.93,2.2-4.58,1.36-7,1.65-.22,0-.53-.25-.73-.45-2.16-2.09-2.11-6.29.34-8.1,1.19-.88,2.44-2.45,4.47-1.09.65.44,2.6.1,2.59-.74,0-1.77.84-3.15,1.24-4.71a1,1,0,0,0-.14-.85c-.23-.23-.54,0-.77.23-2.45,2.22-5.76,2.8-8.67,3.46s-6.12,1.8-9.35,1.36a1.64,1.64,0,0,0-1.19.25,9.4,9.4,0,0,1-4.56,1.43c-4,.2-7.57,2-11.47,2.16a56.43,56.43,0,0,0-6.05,1c-1.74.24-3.63-.36-5.16.47a7.29,7.29,0,0,1-3.73.65c-3.36-.09-6.75-.12-10.09-.07a75.81,75.81,0,0,1-15.34-1.09c-6-1.17-12.13-2.14-18.2-3.05-3.64-.55-7.11-1.7-10.73-2.21-2.3-.32-4.47-1.24-6.71-1.72-3.4-.74-6.72-1.73-10.08-2.58a1.6,1.6,0,0,0-1.33.4c-.46.3-.08.74.11,1.11a6.92,6.92,0,0,1,.75,3.61C85.26,691.21,85.32,693.35,85.32,695.48ZM202.71,470.35c1.52-.44,3.4-.39,4.43-1.76a14.72,14.72,0,0,0,1.89-4c.49-1.41-.13-2.09-1.62-2.08-1.74,0-3.15,1-4.76,1.47-4.16,1.08-8.44,1-12.68,1.46-2.08.21-4.08-.46-6.14-.36-5.52.26-11,.6-16.57.68-4.31.07-8.62-.24-12.93-.32-3-.05-6-.18-9-.32a36.72,36.72,0,0,0-8,.24c-2.19.37-4.32-.36-6.5-.86a77.64,77.64,0,0,0-8.29-1c-1.11-.13-2.35.32-3.37,0-4.7-1.48-9.57-1.06-14.34-1.19a26.16,26.16,0,0,1-9.64-2.16c-.76-.32-1.46-.42-1.71.56-.21.82-.49.88-1.06.33-.21-.2-.57-.58-.66-.53a4.51,4.51,0,0,0-2,2.29,1.79,1.79,0,0,0,.56,2.24c1.21.92,2.74,1,4.1,1.48,2.11.81,4.36.58,6.55.83,4.4.52,8.57,2.13,13,2.56a56.77,56.77,0,0,0,14.77,0,12.39,12.39,0,0,1,3.81,0,67.62,67.62,0,0,0,7.46.91c4.42.18,8.84.3,13.26.49a30.24,30.24,0,0,1,5.69.48c3,.71,6,.54,8.92.54,5.16,0,10.14-1.85,15.42-1.2,3.19.39,6.43-.58,9.72-.35A53.12,53.12,0,0,0,202.71,470.35ZM198.18,747a12.91,12.91,0,0,0,3.75-1c2.45-.75,4.87-1.61,7.31-2.42,1-.33,1.27-.82,1.1-2-.32-2.11-1.4-3.92-1.8-6-.91-4.83-1.57-9.7-2.17-14.56-.34-2.73-2.16-4.25-3.49-6.2-.11-.17-.57-.14-.86-.14a5.86,5.86,0,0,0-5.41,3.41c-1.76,3.24-1.19,6.85-1.15,10.3a68,68,0,0,0,1,8.35,52.24,52.24,0,0,0,1.15,7.07A7,7,0,0,1,198.18,747Zm-68.81,7.41c3.48,0,3.49,0,3.43-2.84,0-1.5-.56-3-.34-4.5a28.89,28.89,0,0,0-.21-10.41c-.41-1.88-1.61-3.84-.55-5.94a1,1,0,0,0-.28-1.16c-1.15-1-2-2.35-3.32-3.18-1.51-1-3.7-1.32-4.71-.38-2,1.9-2.81,4.8-3.41,7.54-.42,1.94.38,3.87.47,5.83.21,4.32-1.23,8.46-1.27,12.76,0,.67-.13.92.58,1.11C123.13,754.12,126.49,755.09,129.38,754.39Zm94.93-248.51c.5-1.33,1.6-2.53,1.86-3.67a5.51,5.51,0,0,1,1.42-2.79c.45-.48,1.21-.76,1.29-1.47.12-1.1,1.06-1.13,1.72-1.54.4,1.13,2.57.09,2.37,1.94,0,.43.27.66.55.89,1.24,1,2.47,2.07,3.74,3.07.53.42,4.66.55,5,.21,1.56-1.37,2.1-6.26.83-8.07-1.42-2-2.79-4.1-4.38-6-1.09-1.33-1.86-3-3.36-3.89s-3.23-1.67-4.72-2.78a22.71,22.71,0,0,0-4-1.94c-.68-.32-1.17-.13-1,.64.85,3,.35,6.45,2.43,9.17.74,1,1.17,1.8-.07,2.9-.52.46-1.08,1-1.53,1.44-1.83,2-4.36,3-6.05,5.17a1.25,1.25,0,0,0-.3,1.44A10.27,10.27,0,0,0,224.31,505.89Zm18.81-66.16a2.87,2.87,0,0,0-2.36-3c-1.81-.14-3.09.9-4.22,2-2.3,2.32-4.21,5-7.13,6.72-.47.27-1.52.53-1.08,1.36.31.59,1.08.12,1.65,0,2.81-.77,5.58-1.67,8.43-2.25C241,444,243.08,442.16,243.12,439.73ZM206.64,693.22c-.17-.48.29-1.33-.42-1.55a2,2,0,0,0-2.3.61,2.49,2.49,0,0,1-2.24,1.2c-1.07-.08-1,1.16-1.17,1.95-.11.57-.15,1.09.67,1.42A3.88,3.88,0,0,0,206.64,693.22Zm-112.58,1.9c.47-.51-.49-1-.16-1.61a.49.49,0,0,0-.31-.72c-.62-.24-.41.34-.56.6a2.45,2.45,0,0,1-2.52,1.23c-1.6-.4-1.45.94-1.89,1.56s-.16,1.39.52,2,1.86,1.37,2.72.9A3.93,3.93,0,0,0,94.05,695.12Zm-13.83-173a.91.91,0,0,0,.4,1.09c2.6,1.64,5,3.55,8.14,4.3,2,.49,4.29.45,6.06,1.88.27.22.53.28.74-.07a.45.45,0,0,0-.14-.63c-.32-.27-.65-.68-1-.72-2-.26-3.75-1.28-5.57-2.09-1-.43-1.23-1.66-2.41-1.64C84.15,524.29,82.23,523.19,80.22,522.14Zm203.14,50.24c.35.72-.48,1.67.5,2.21a.41.41,0,0,0,.55-.31A1.58,1.58,0,0,0,283.36,572.39ZM225.92,448c.82.27,1-.34,1.36-.7l-.18-.1A1.39,1.39,0,0,0,225.92,448Z"/><path class="cls-1" d="M102.52,345.55a3.22,3.22,0,0,0-.41-2.27c-1.1-1.26-.22-2.64-.24-3.91,0-1.11,1.21-.75,2.11-.53,0-.57,0-1.12,0-1.66A1,1,0,0,1,105,336a.89.89,0,0,1,1,1c-.06,2,1.37,2.48,2.89,2.61a48,48,0,0,0,5.22.06c2.3-.05,4.33,1.25,6.62,1.27,1.31,0,2.72.91,3.83-.55.46-.6.91-.1,1.22.17.91.79,2.26.76,3.06,1.84.35.47.77.2,1.09-.52.85-1.92,2.13-1.93,3.23-.14.13.2.15.48.44.47,2.34-.12,4.77.75,7-.77a2,2,0,0,1,3,.4c.53.7,1.1.92,1.74.09.44-.56.76-.68,1.55-.21,1.13.67,2.63,1.2,3.24-.89.08-.27.37-.85.92-.61s1.13.33,1.11,1,.32,1,1.09,1,.86-.7,1.08-1.21a2.12,2.12,0,0,0,0-.54c.11-.86.41-1.8,1.3-1.89,1.08-.1,1.43.87,1.58,1.81.07.48.08,1,.17,1.44a1.16,1.16,0,0,0,1.19.92,1,1,0,0,0,1-1.06c0-.48-.07-.93.37-1.31s.72-.94,1.36-.7c.46.18.57.71.68,1.16.07.29-.06.65.06.9.32.68.2,1.81.91,2s.74-.9,1-1.46c.61-1.12,2.67-1.07,3.76,0,.19.19.15.61.71.56.17-1.36,1.39-2,2.2-3a1.63,1.63,0,0,1,2-.28c.86.31.48.94.4,1.5a5.19,5.19,0,0,0-.05,1.09c0,.21.08.53.23.61.33.18.6-.11.72-.36a17.3,17.3,0,0,1,.77-1.79c.47-.74,1-1.64,2.06-.65.51.48.75.12.89-.28a1.11,1.11,0,0,1,1.41-.82c.87.22.32,1,.52,1.52.48,1.15-1.42,2.56.19,3.4,1,.52,2.35.26,3.55.52a8.28,8.28,0,0,0,4.24-.56,10.72,10.72,0,0,1,2.4-.63c2.43-.21,3.88-1.8,5.31-3.56.9-1.12,1.63-2.64,3.48-2.58a.77.77,0,0,0,.81-.61c.16-1.14-.06-2.5,1.74-2.47-.62-1.32.59-1.84,1.21-2.53,1.21-1.37,1.65-3.42,2.75-4.48,2-2,2.61-4.8,4.71-6.54.88-.73.88-1.79,1.43-2.63s1.07-1.06,1.73-.69c.88.49,0,1-.23,1.44-2.48,5.8-6.43,10.7-10.1,15.71-1.83,2.5-3.58,5.22-6.08,7.24-.37.3-1.18,1.28.44,1.2.45,0,.65.47.65.94s0,.81-.61.87-.73.4-.63,1.14a12.25,12.25,0,0,1-.16,5c-.36,1.3.13,2.63.29,3.95.27,2.21.5,4.42.72,6.64,0,.47.19.93.6,1,.7.12.41-.58.57-.9a11.4,11.4,0,0,1,5.08-4.88,11.88,11.88,0,0,0,3.22-1.89,1.62,1.62,0,0,1,2.51.77c.24.92.46,2.17-.38,2.75-1.42,1-1.61,2.58-2.45,3.83a12.23,12.23,0,0,0-2.25,7c0,1-.69,2-.72,3.12-.09,3.45,1.51,6.48,2.23,9.71.76,3.39,1.17,6.76-.14,10.2a38.82,38.82,0,0,0-1.21,4.09c-.8,3.11-3.13,4-5.77,5-3.95,1.51-8.06.62-12,1.41-3,.6-6,1.25-9,1.82-2.57.49-5.31,1-8,0-.83-.33-1.47.32-2.22.41-2.48.28-5,.57-7.46.82a2.15,2.15,0,0,1-1.56-.37,2.86,2.86,0,0,0-2.45-.37c-3.31.85-6.93.07-10,1.9-.69.41-1.42.18-2.13.24-4.7.42-9.28-.59-13.92-1a63.2,63.2,0,0,1-7.91-1.5,4.91,4.91,0,0,0-1.09-.07c-1.19,0-2.44.55-3.51-.44-.24-.22-.56-.09-.85,0-1.64.62-3.25,1.16-4.93-.1-.24-.18-.74-.18-.81-.62a1,1,0,0,1,.75-1.08c3-1,6.13-.61,9-.11,2.08.36,4.26.24,6.34,1a16,16,0,0,0,6,1c1.85,0,3.71.26,5.57.39,1.66.12,3.22.77,4.94.67a3.83,3.83,0,0,0,1.45-.41c.38-.17.68-.37.49-.79s-.51,0-.72,0c-3.48-.49-6.95-1.13-10.44-1.52a60.1,60.1,0,0,1-10.94-2.71,4,4,0,0,0-2.24,0c-1.77.54-3.54-.29-5.33.22-1.08.31-2.16-.08-3.13,1.17-.56.73-2.36.7-3.59.67a94,94,0,0,1-10.76-.88c-1.69-.23-3-1.16-4.56-1.5-2-.42-2.54-2.61-3.27-4.24-1-2.3-.56-4.69.27-7.07a19.71,19.71,0,0,0,1.57-6.61c0-1.5,1-2.87,1.21-4.45.5-3.5.82-7,1.36-10.5.38-2.47-.34-4.65-.88-6.89A4.1,4.1,0,0,0,92,357c-.78-.35-1.47-.59-1.09-1.4.47-1,1.86-1.6,2.55-1.07,1.17.89,2.58,1.5,3.51,2.83,1.66,2.37,2,5,2.06,7.74,0,.66.65.84.64,1.56,0,2.76.2,5.51.28,8.27.08,3,.43,5.89.42,8.86s2.91,5.15,5.74,4.79c.92-.12.92-1,1.11-1.66a7.32,7.32,0,0,0-.13-3.17c-.68-4.06-.8-8.19-1.58-12.24a49.44,49.44,0,0,1-.4-6.86,106.89,106.89,0,0,0-1.44-12.71c-.28-1.64-.12-3.36-.9-4.9C102.79,346.5,103.1,345.94,102.52,345.55Zm46.81,32.94-.09-.11a45.91,45.91,0,0,1,7.08-.73c.41,0,1.18.34,1.13-.42s-.85-.7-1.33-.47a3.77,3.77,0,0,1-2.3.19c-3.88-.6-7.82-.58-11.72-1-3.7-.36-7.46,0-11.14-.82-.38-.08-.73-.08-.72-.58s.33-.57.73-.56.73,0,1.09,0a92.16,92.16,0,0,0,12.22,1,114.06,114.06,0,0,1,11.43.79c3.38.29,6.81,0,10.21.09,1.74.05,3.31-.65,5-.75a24.81,24.81,0,0,0,10.67-2.61c.6-.33,1.2-.68,1.09-1.46s-.89-.94-1.52-1c-1.23-.08-2.47,0-3.81,0,.53-1.09,1.45-.52,2-.85.76-.46,2.5.21,2.25-1.12s-1.55-.48-2.43-.25c-.34.09-.78.2-1-.22s.37-.5.58-.74c.62-.72,2.11-.37,2.23-2-1.85.86-3.77.95-5.58,1.69s-3.77.52-5.71.35-3.85.06-5.72-.26-3.89-.1-5.81-1c.53-.56,1.08-.44,1.61-.46,2.36-.12,4.65.46,7,.71,4.93.53,9.62-1.29,14.48-1.56a1.07,1.07,0,0,0,.87-.86,7.62,7.62,0,0,1,2.81-4.77c-2.33.2-3.58,1.78-5.37,2.31a32.39,32.39,0,0,1-5.54,1.31c-1.8.21-3.57.8-5.37.85s-3.55.83-5.39.37c2.58-1.2,5.38-1.44,8.09-2,3.15-.66,6.33-1.16,9.27-2.58.38-.19.86-.3.67-.86s-.58-.17-.89-.22c-1.41-.25-2.57.61-3.84.89-1.66.38-3.33.16-5,.5a24.49,24.49,0,0,1-6.86.39,39.55,39.55,0,0,0-5,.17c-3.64.15-7.28.54-10.92.58-1.62,0-3.28-.77-4.87-.91a93.7,93.7,0,0,1-10.12-1.15c-3.64-.72-7.43-.52-11-1.52-.45-.12-1.05-.29-1.25.33a1.52,1.52,0,0,0,.18,1.17c.24.36.65.77,1.18.54.33-.15.62-.42,1-.19a35.17,35.17,0,0,0,8.8,3.23,49.05,49.05,0,0,0,10.51,1.67c5.65.29,11.33-.21,17-.35a3.72,3.72,0,0,1,2.69.64c-.88.72-1.67,0-2.49,0-1.89.11-3.76.92-5.69.34-.51-.15-.95-.05-1.09.58-.42,1.86-1.78,1.14-2.85.94-.43-.08-.83-.45-1.34-.47-3.46-.13-6.9-.5-10.35-.68a65.62,65.62,0,0,1-15.5-2.75c-1.47-.44-2,.59-2.26,1.28-.37.9.61,1.2,1.44,1.36a38.57,38.57,0,0,0,6,.41,9.34,9.34,0,0,1,3.85,1.19c-1.12,0-2.16.2-3.28.1-2.85-.26-5.73-.13-8.6-.16a.81.81,0,0,0-.85.53c-.13.48.42.62.67.71a7.34,7.34,0,0,0,3,.55c1-.08,1.78.23,2,1.36-1.5.49-2.87-.23-4.3-.29a4,4,0,0,1-1.73-.45c-1-.57-1.51,0-1.85.77-.41.89,1.73,4.15,2.67,4,2.81-.54,5.47,1,8.26.47.25,0,.65-.09.7.34s.08.66-.3.75c-1.54.37-.47,1.15-.29,1.75h-2.41c.43-.51,1.11-.22,1.28-.81.07-.24.2-.51,0-.66-.59-.47-1.29-.11-1.94-.16-.24,0-.35.24-.26.33,1,1,0,1.14-.5.88a8,8,0,0,0-3.56-.56c-.48,0-1.5-.51-1.34-.11.4,1-.51,2.31.79,3a13.61,13.61,0,0,0,5,1.53c4,.44,7.91.81,11.85,1.45,3.37.55,6.87.45,10.28.78,4.21.41,8.34-.47,12.49-.12,2.71.23,5.19-1,7.87-.83a10.24,10.24,0,0,0,2.5-.12c2.4-.4,4.69-1.21,7.07-1.62a16.06,16.06,0,0,0,4.68-1.78,1.21,1.21,0,0,0,.79-1.26.55.55,0,0,0-.69-.45c-1.45.53-2.94.11-4.41.19a38,38,0,0,0-5.7.68c-3.58.73-7.26,1-10.89,1.38A51.32,51.32,0,0,1,149.33,378.48ZM97.7,365.82a19,19,0,0,0-1,4A44.08,44.08,0,0,1,95.67,377c-.41,2.31-.74,4.63-1.19,6.93A34.38,34.38,0,0,1,93.07,390a6.21,6.21,0,0,0,.65,5.87c1.2,2.07,3.49,2.49,5.24,2.79a37,37,0,0,0,8.21.33c1.37-.08,2.71,0,4.1-.21,1.11-.13,1.28,0,.86-1a1.06,1.06,0,0,1,.59-1.33c.62-.32.76.35,1,.72a2.06,2.06,0,0,0,1.67,1c1.37-.12,2.64.58,4.08.19a6.91,6.91,0,0,1,3.8,0,42.62,42.62,0,0,0,7.68,2c4.94.71,9.91,1.22,14.82,2.22a34,34,0,0,0,9.94.24c3.59-.33,7.17-.1,10.75-.48s7.09-.16,10.59-.58c2.32-.28,4.74-.55,6.79-2,.75-.54,1.58-1,1.14-1.94-.32-.66-1.26-.23-2-.17-2.39.2-4.68,1-7,1.29-3.84.47-7.71.75-11.57,1a104.75,104.75,0,0,1-11.14.23c-5.2-.19-10.38-.69-15.58-.84a27.72,27.72,0,0,1-5.56-.5c-5-1.19-10.22-1-15.21-2.36-1.92-.53-3.41-1.06-4.18-3.08a1.91,1.91,0,0,1,.23-1.77c.25-.5.8-.47,1.27-.16a.89.89,0,0,0,1.28-.28c.59-.75,1.07-.5,1.83-.15,1.71.79,2.8,2.4,4.5,3.16,4.61,2.06,9.55,2.67,14.5,3.16,4.78.47,9.57,1,14.37,1.14,9.69.34,19.37.15,28.59-3.34,2.92-1.1,6.07-2.22,7.84-5.41a5.13,5.13,0,0,0-2.07.33c-3.84,1.29-7.9,1.43-11.84,2.19a76.15,76.15,0,0,1-20,1.1c-.3,0-.65.13-.89,0-2.52-1.16-5.17-.66-7.8-.71-4.77-.08-9.51,1.38-14.33.1-3.35-.89-6.82-1.19-10.12-2.45-1.29-.49-2.75-1.43-4.46-.72-2,.81-3.87,2.41-6.21,1-.08,0-.24,0-.35,0-2.39,1-4.7.67-7.16,0a3.29,3.29,0,0,1-2.67-2.18c-.83-2.29-.75-4.83-1.83-7.06-.17-.35.12-.69.3-1a4,4,0,0,0,.4-2.09c0-3.53,0-7.07,0-10.6A2.41,2.41,0,0,0,97.7,365.82ZM113,388.19c-.4-.68-1.84-.62-1.28-1.83s1.46-.07,2.18-.19c.55-.09,1.24.57,1.63-.17a7.31,7.31,0,0,1,2.13-2.05,3.2,3.2,0,0,0,.78-3.13,1.88,1.88,0,0,0-2.68-1.07c-.88.37-1.18-.45-1.7-.71s0-.83.17-1.27c.46-1.26,1.11-1.7,2.2-.62.4.39.86.88,1.37.39s.22-1.18-.12-1.62c-.55-.72-.95-1.54-2.18-1.62a1.9,1.9,0,0,1-1.59-2.79,31.21,31.21,0,0,0,2.79-6c.13-.32-.07-.87.38-.94,1.88-.29,1.81-2.18,2.71-3.26.53-.64.75-1.51-.66-1.54-1,0-1-.77-.85-1.46a3.58,3.58,0,0,0-3.47-4.37c-1.86,0-2.37-1.27-2.2-3.09s1.48-1.07,2.16-1.51a3.79,3.79,0,0,1,4-.3c1.55.89,3.21.24,4.8.55.69.14.92-.65.95-1.28,0-.31-.05-.55-.52-.49-1.81.22-1.72-.87-1.27-2,.87-2.24.75-2.46-1.7-2.88a8.93,8.93,0,0,1-.82-.36,17.54,17.54,0,0,0-3.64-1c-3.22-.19-6.48.23-9.68-.48-.93-.21-1.4,0-1.29,1a36,36,0,0,1,.27,4.57,66.21,66.21,0,0,0,.66,6.92c.46,5.27,1.11,10.53,1.48,15.82.27,3.88.89,7.79,1.28,11.7.21,2.1.43,4.21.74,6.3.09.63.41,1.28,1.37.91A6.88,6.88,0,0,1,113,388.19Zm80.9-39.44a20,20,0,0,0,0-2.23c-.13-1.07-1.59-2.13-2.3-1.72-3.49,2-7.18,1.84-10.91.94-1.36-.33-2.07.13-2,1.43a3.91,3.91,0,0,1-.6,2.16c-.36.64-.95,1.52-.39,2.35s1.54.55,2.19.36c2.43-.7,5-.28,7.42-.9a2.38,2.38,0,0,1,2.57.9c.42.75,0,1.61-.86,2.15a2.09,2.09,0,0,0-.53.92c-1.06,2.47-.79,5.51-3.19,7.44a.69.69,0,0,0,.48,1.19c.6,0,1.2.11,1.16.8,0,.53-.78.46-1.09.75-.63.6-1.91.77-1.72,2s1.34,1.4,2.34,1.6c.17,0,.37,0,.55,0,.6.07,1.21.23,1.42.84s-.44.92-.78,1.32-.73.37-1.1.54a1.73,1.73,0,0,0-.47,2.89,1.52,1.52,0,0,1,.41,1.8,3.7,3.7,0,0,0,0,2.28c.3,1.61,1.3,2.86,1.9,4.3a11.44,11.44,0,0,0,2.56,4.2c1.1,1,1.39,1.61.89,2.91-.37,1-.31,2,1.18,2a4,4,0,0,0,3.26-1.84c.27-.34.49-1-.5-1.13-1.17-.11-1.47-1.06-1.52-2a16.13,16.13,0,0,1,.49-5.19,22.87,22.87,0,0,0,.8-6.92,28.51,28.51,0,0,1-.13-5c.78-5.34.11-10.56-.72-15.81C194.37,352.19,193.45,350.45,193.85,348.75Zm-38.11,40.8c1.58.2,2.66-.38,3.78-.59,1.86-.35,3.9.16,5.56-.51,3.25-1.33,6.81-.82,10.09-2.2a44.26,44.26,0,0,1,6.63-1.86c.39-.09,1.13,0,1-.74a1.34,1.34,0,0,0-1.19-1.18c-.9-.14-2,.39-2.59-.79-.59,1.15-1.75.73-2.66.93-4.33.94-8.78.95-13.16,1.56-4,.56-8.08,0-12.13-.14A167,167,0,0,1,130,382.32c-2.56-.42-5.2-.65-7.76-1.23a1.38,1.38,0,0,0-1.82,1.27,4.08,4.08,0,0,1-2.3,4.11,1,1,0,0,0-.47.7c.05.5.55.29.87.36,1.75.36,3.52.63,5.24,1.12,1.9.53,3.89.34,5.75.83a42.74,42.74,0,0,0,8.21,1c1.72.12,3.46.1,5.16.17,2.57.1,5.2.51,7.81-.31A32.14,32.14,0,0,1,155.74,389.55Zm50.17-31.22-.35-.29c-3,2.24-5.93,4.33-6.72,8.6-.41,2.23-.31,4.42-.64,6.6a29.21,29.21,0,0,0,.53,12.39c1.1,3.86-.58,6.85-3.9,8.18a1.92,1.92,0,0,0-1.38,1.9,2.58,2.58,0,0,1-3.12,2.23c-1.23-.3-3.6.79-4,1.89-.16.4-.22,1.06.43.83,3.62-1.29,7.54-.23,11.18-1.68,2.61-1,5.18-3.6,5.38-6.36a25.41,25.41,0,0,1,.89-4.57,9,9,0,0,0,.16-4.72,39.66,39.66,0,0,0-1.87-5.59,8.56,8.56,0,0,1-.91-4.65c.6-4.12.58-8.42,3.17-12A13.83,13.83,0,0,0,205.91,358.32Zm-18.07,29.51c.18-.62-.39-.52-.45-.77-.66-2.69-2.18-2.15-3.88-1.08a2.09,2.09,0,0,1-.7.13c-5.26,1-10.51,2-15.78,2.91-3.65.65-7.32,1.26-11,1.78a4.56,4.56,0,0,0-2.13,1.09c3.46.05,6.56.45,9.77.09,4.4-.49,8.79-1.1,13.12-1.9C180.47,389.42,184,388,187.84,387.83ZM123.45,354c-1,0-1.57,0-2.18,0-.31,0-.91-.36-.9.4,0,.54.4.61.87.68a24.16,24.16,0,0,1,2.65.62,68.56,68.56,0,0,0,12.17,1.85c1,.09,1.61.91,2.43.77,2.44-.43,4.81.18,7.2.39,1.35.12,2.73.82,4,.62a22.41,22.41,0,0,1,7.29-.07c.77.13.67-.22.68-.62s.18-.74-.59-.67c-3.53.33-7-.73-10.49-.88-3.8-.16-7.65-.46-11.44-.94A40.47,40.47,0,0,1,127.7,355C126.24,354.51,124.82,353.36,123.45,354Zm27,2.14a51.41,51.41,0,0,1,6.93.8,57.87,57.87,0,0,0,12.14.24c2.92-.17,6,.07,8.72-1.55.62-.37,1.65-.06,2.19-1.2-5.2.14-10.18.67-15.17,1S155.34,354.6,150.48,356.11Zm-25.64-4.81c2,1.87,4.72,1.4,7,1.9a42.17,42.17,0,0,0,7.24.62c1,0,1.23-.15.76-1.1s-.78-1.26-1.9-1a11.67,11.67,0,0,1-4-.12C131,351.15,127.92,351.7,124.84,351.3Zm24.88,3c.5.18,1.16.22,1.29-.33s-.47-.53-.88-.68c-2-.77-4-1.48-6.25-.79-.56.17-1.44,0-1.37.77s.94,1,1.67,1C146,354.3,147.87,354.28,149.72,354.28Zm33.55,40.84c.23.56.58.38.84.44,1.89.42,3.44-1,5.35-.93.76,0,.45-1.39.24-2.15s-.42-.89-1.21-.37C186.81,393.21,185.32,394.64,183.27,395.12Zm-8.83-48c-1.18,3.18-1.44,3.44-3.79,2.79-1.82-.51-.61-2-.75-3.12-.57.56-.75,1.28-1.35,1.77s-.2,2.58.54,2.75C172.55,352.08,174.45,350.59,174.44,347.12Zm10.63,34.08c0-2.41-.73-2.83-2.73-1.71a3.12,3.12,0,0,1-1,.39c-.44.07-.68.26-.59.7s.57.43.86.31a1.93,1.93,0,0,1,2.69.61c.08.12.43.13.63.08S185,381.28,185.06,381.2Zm-69.19,12.55c1,1,2.16,1.83,3.82,1.23C118.75,393.16,117.23,393.78,115.88,393.75ZM97,363.5c.62-1.56-.73-2.42-.65-3.56C95.47,361.23,96.52,362.15,97,363.5Zm61.15-12.34c.9-.28,2.2-.23,1.95-2C159.11,349.51,158.67,350.32,158.18,351.16Z"/><path class="cls-1" d="M82,307.46l-.92-2.08c.19-.27.55-.51.4-.88s-.55-.28-.89-.23c0-.59,0-1.2-.71-1.48l-.17-1.49c-.75-1.72-.62-3.62-1.07-5.4.89-1-.05-.95-.6-1.15l.07-2.2c1-.72.39-1.51-.17-1.89s-.63-.93-.9-1.41l-.48-2.93.49-.15-.49-.15v-.4c.81.13,1.1-.55,1.88-1.45a17.3,17.3,0,0,0,1.08,7.69c.95,2.54.73,5.26,1.54,7.9,1.14,3.71,3.08,7.05,4.1,10.74.87,3.13,2.84,5.74,3.87,8.77.53,1.54,2.36,1.74,3.11,3.18,1.48,2.85,4.22,4.77,5.86,7.61.81,1.41,2.27,2.54,3,4.1.22.47.55.41.88.39.9,0,1.33.3,1.36,1.26a1.81,1.81,0,0,1-1.24,2c-1,.39-1.18-.45-1.57-1a40.89,40.89,0,0,0-5.83-7.31,6.11,6.11,0,0,0-2-2.53l-.86-2.21c0-.19.07-.39-.24-.27l-.73-.08-.5-.85a6,6,0,0,0-2.07-2.06c-1-1.71-1.33-3.83-2.72-5.31-.71-.76-.56-1.66-.92-2.46C84,312.17,83.53,310.58,83,309Z"/><path class="cls-1" d="M82.94,265.2l-.62,3.64c.06.52-.15,1.1.34,1.53.75.66.24,1.76.86,2.47,0,.41-.16.84-.18,1.21-.1,1.66-.85,3.38.21,5,.29,3,2.05,5.7,2.28,8.76-.29,1.41.77,2.23,1.4,3.23a.24.24,0,0,0,.08.28c.65.61.7,1.52,1.09,2.26-.09.34.21.47.37.67.45.64.07,1.63.9,2.1,1.17.73,1.15,2.18,1.9,3.16.53.52.19,1.29.53,1.86.66,1.16.49,2.48.74,3.72.34.39,0,1.06.58,1.36,0,.4,0,.82.38,1.1,1.42,1.19,1.7,3.07,2.74,4.49l0,0c.38.73.78,1.46,1.12,2.21s-.46.93-.73,1.29-.81-.16-.92-.44c-1.55-4-4.62-7.3-5.48-11.63-.23-1.18,0-2.37-.41-3.57a4.49,4.49,0,0,0-1.86-2.69c-.84-.56-1-2.11-1.49-3.22s-.54-2.22-1.66-3c-1-.7-.69-2.16-.8-3.2A14.83,14.83,0,0,0,83,283.34a10.43,10.43,0,0,1-.93-4.45,36.55,36.55,0,0,0-.65-8.44c-.06-.27-.07-.72.09-.84,1.6-1.23.22-1.86-.5-2.62q.59-4.38,1.17-8.75c.09-.67-.07-1.51,1-1.62l.74.17a30.31,30.31,0,0,0-.93,7.25A1.42,1.42,0,0,0,82.94,265.2Z"/><path class="cls-1" d="M192.3,334.08a16.55,16.55,0,0,1,2.12-3.12c2.13-2,2.85-4.88,4.48-7.21a26,26,0,0,0,4.07-7.93,20.59,20.59,0,0,1,3.35-7c.61-.82.25-1.73.55-2.59.39-1.12,1.37-1.85,1.6-3,.08-.41.35-.43.67-.41a.74.74,0,0,1,.7.5,1.88,1.88,0,0,1-.12,1.73c-1.72,2.44-2.48,5.34-3.68,8a112.54,112.54,0,0,1-5.27,11.25,99.19,99.19,0,0,1-7,10.51c-.24.31-.4,1-1.07.66C192.24,335.23,192.4,334.73,192.3,334.08Z"/><path class="cls-1" d="M227,247.29a2.51,2.51,0,0,1,1.73,2.25c.85,4.68.46,9.32,0,14-.39,3.61-.63,7.24-.84,10.86a3.67,3.67,0,0,1-.63,1.6c-1.08,2-.22,4.39-1.15,6.46-.26.57-.37,1.09-1.13,1.34a7.86,7.86,0,0,1,1.36-5.8,1.38,1.38,0,0,0,.33-1.12c-.64-2.53.42-4.88.81-7.3.18-1.12.94-2.17,0-3.32-.18-.23-.09-.72,0-1.07.48-2.53,0-5.13.42-7.62C228.44,254.06,227.46,250.8,227,247.29Z"/><path class="cls-1" d="M213.09,315.46c1.29-3.2,2.47-6.46,3.9-9.6a49.46,49.46,0,0,0,3.42-9.17,8.85,8.85,0,0,1,1.18-2.53c1,1.32.53,2.6.14,3.73a112.39,112.39,0,0,1-4.28,11.31c-1.17,2.47-1.65,5.18-3.13,7.55-.83.14-.26-1.16-1-1.1Z"/><path class="cls-1" d="M215,234.12l-.08-1.82c.11-.32.09-.59-.26-.75l-.1-1.45a.54.54,0,0,0-.27-.74l-.11-1.08c-.06-.85-.1-1.72-1-2.21l0-.73c.28-.68-.35-.8-.68-1.1l0-2.19c.34-.43,0-.57-.31-.74l-.15-1.07a.76.76,0,0,0,0-.79c-.87-.51-.48-1.42-.67-2.14.17-.76.13-1.66,1.2-1.85l.71,2.2.07,1.48c-.2.47.23.72.37,1.07a4.23,4.23,0,0,0,.07,2.24l.09.73c-.18.41-.07.67.4.72,0,.24-.15.5.12.7,0,.3,0,.62.35.73l.29.76.23,1.88.74,1a.71.71,0,0,0,0,.79c.59,1.26.15,2.7.67,4-.08,2.3.7,4.43,1.29,6.6.1.38.17,1,0,1.19-.55.46-.66-.52-1.14-.52l-.9-2.88c-.33-.45.82-1.19-.28-1.5l-.22-1.77A.53.53,0,0,0,215,234.12Z"/><path class="cls-1" d="M97.95,315.93c2.08,2.47,2.49,5.82,5,7.92.65.54.49,1.55.7,2.34s-.47.9-1,1.1-.75,0-.94-.5c-1-2.75-3.11-4.88-4-7.72C97.36,317.86,98.3,317,97.95,315.93Z"/><path class="cls-1" d="M218.26,250.9v-1.1c.27-.69-.35-1.18-.39-1.8l.17-1.45a1.53,1.53,0,0,1,1.07,1.37c.41,2.5.77,5,0,7.48a2.16,2.16,0,0,0,.09,1.42c.62,1.82.08,3.66.16,5.49a.5.5,0,0,1-.51.58c-.52,0-.45-.44-.44-.8q0-3.57,0-7.14c.07-.26.26-.51,0-.78l-.22-1.82c.18-.34.59-.67.09-1.07Z"/><path class="cls-1" d="M223.83,231.9c.33-1.32-.55-2.45-.58-3.71.26,0,.5-.1.5-.39,0-.45-.25-1.06.44-1.13.21,0,.47.56.71.86l.16,1.08a8.79,8.79,0,0,0,.06,1.58C225.36,231.31,225,231.87,223.83,231.9Z"/><path class="cls-1" d="M75.86,280.12l-.09-1.79c.06-.41.27-.86-.27-1.13a.64.64,0,0,1,0-.31c.45-.16.72-1,1.32-.46.33.32.76.92.28,1.41s.14.81.12,1.23C77.15,280,77,280.62,75.86,280.12Z"/><path class="cls-1" d="M151.78,536.45a2.35,2.35,0,0,0,2.8-.09,1.78,1.78,0,0,1,2.17-.23c.24.15.21.42,0,.59a1.86,1.86,0,0,1-2.19.13C153.63,536.07,152.66,536.71,151.78,536.45Z"/><path class="cls-1" d="M77.32,259.32l-.07,1.09-.38,1.87c-.92-.12-.85-1.1-1.41-1.49a3.77,3.77,0,0,0,.21-2.22A2.42,2.42,0,0,1,77.32,259.32Z"/><path class="cls-1" d="M217.24,245.8l-.09-.72c0-.4.21-.84-.29-1.11l.17-1.43c1.71.14.73,1.69,1.23,2.49C218.56,245.52,217.91,246,217.24,245.8Z"/><path class="cls-1" d="M247.2,468.85c.82-.59,1.27-1.34,2.19-1,.11,0,.53.55.16.92C248.88,469.41,248.19,469.1,247.2,468.85Z"/><path class="cls-1" d="M246,469.08a2.15,2.15,0,0,1-2.36,1.7c-.26,0-.64-.47-.46-.65A3.06,3.06,0,0,1,246,469.08Z"/><path class="cls-1" d="M75.72,271.41c.08-.86-.29-1.74.08-2.6.54-.31.11-1,.94-1.72,0,2.17,0,4,0,5.87l-.27-.22C76.22,272.3,76.24,271.71,75.72,271.41Z"/><path class="cls-1" d="M218.2,272.07c-.43-.23-.71-.5-.66-.9.07-.58,0-1.22.63-1.59a.36.36,0,0,1,.34,0c.46.52.07,1-.09,1.5A8.79,8.79,0,0,0,218.2,272.07Z"/><path class="cls-1" d="M75.82,275.23l-.15-2.07.8-.41.27.22C77.1,274,77.29,274.95,75.82,275.23Z"/><path class="cls-1" d="M75.77,264.45l-.07-.73a.8.8,0,0,1,1.29-.19c.19.16.33.67.23.81C76.83,264.83,76.27,264.42,75.77,264.45Z"/><path class="cls-1" d="M90.33,323.5l.5.85c-.32,0-.74.08-.86-.34C89.94,323.89,90.21,323.67,90.33,323.5Z"/><path class="cls-1" d="M213.3,315.65l-.16.62c-.08,0-.22,0-.24-.08a.55.55,0,0,1,.19-.74Z"/><path class="cls-1" d="M91.57,324.43c.31-.12.28.07.24.27A2.8,2.8,0,0,0,91.57,324.43Z"/><path class="cls-1" d="M208.46,486.21l.22-.35a1,1,0,0,1,.11.11c-.08.11-.17.21-.26.31Z"/><path class="cls-1" d="M125.91,22.9c-1.5.6-2.35-1.18-3.73-1a2.12,2.12,0,0,1-.57-.11c-.48,2.64.33,5.15,1,7.53a51.84,51.84,0,0,1,1.33,9c.26,2.83.88,5.58,1.15,8.39a9.26,9.26,0,0,1-.06,3.26,2,2,0,0,0-.16.71c.63,4.22-.49,8.45.23,12.68.45,2.65-.38,5.31-.39,8,0,1,0,2,.13,3,.34,4-.44,7.86-1.09,11.73-.45,2.72-.32,5.44-.61,8.16-.4,3.71-1.54,7.23-2.19,10.87A146.77,146.77,0,0,1,117,119.82a37.39,37.39,0,0,0-1.26,6c-.23,2-1.14,3.77-1.59,5.69-.92,3.9-2.27,7.7-3.51,11.51-.86,2.65-2,5.22-2.7,7.9-1.16,4.24-3.19,8.18-4.08,12.52-.63,3.07-2.69,5.66-3.72,8.6-1.6,4.58-4.1,8.72-6,13.13-1.33,3-2.47,6.15-3.77,9.19-.95,2.22-2.13,4.34-3,6.59a75,75,0,0,0-3.82,14.34c-.59,3.51-1.25,7-1.87,10.52a.7.7,0,0,1-.59.6c0-.67-.82-1.39.21-2,.24-.14.05-.55-.18-.77-.38-.36-.63,0-.92.19-.65-1,0-1.91.13-2.79,1.08-6.43,2.1-12.89,4.21-19.1,1.31-3.85,3.12-7.47,4.74-11.19,2.65-6.1,5.57-12.07,8.21-18.16a97.63,97.63,0,0,0,5.18-13.31,138.19,138.19,0,0,1,4.77-13.87c1.68-4.32,3-8.81,4.34-13.25,2.18-7,3.31-14.21,5.5-21.19,1.16-3.69,1.71-7.65,2.53-11.48,1.1-5.19.95-10.52,1.9-15.65C123,77,122.81,70.15,122.83,63.3c0-5.51,0-11.06-.24-16.58-.07-1.87-.64-3.68-.84-5.56-.6-5.78-1.58-11.51-2.72-17.21a20.64,20.64,0,0,0-1.17-3.4c-.32-.83-.61-1.58,0-2.38,1.38.15.68,1.38.89,2,.33,1,.67,2.44,1.59,2.19,1.2-.34.51-1.78.24-2.7-.31-1.08-.18-1.82.92-2.25a10.27,10.27,0,0,0-.34,1.56c0,.47-.05.75.78.67a10.3,10.3,0,0,1,4.84.9c.14.06.21.28.31.43l-.12.14C125.16,20.84,126.15,22.24,125.91,22.9Z"/><path class="cls-1" d="M199.34,18.55c-.49,1.38-1.81.57-2.7,1a11.33,11.33,0,0,1-4.83,1.22c-2.44-.07-4.44,1.78-6.81,1.79-4.22,0-8.28,1.53-12.52,1.14a12.18,12.18,0,0,0-4.28.68c-1.89.5-3.92.17-5.89.33a56,56,0,0,1-6.91-.11c-2.14-.09-4.35.23-6.53.17-4.44-.13-8.91.29-13.32-.69-1.94-.43-4,.15-6-.33-1-.23-1.7.23-1.27,1.48a5.28,5.28,0,0,0,.8,2.18,2.36,2.36,0,0,1,.34,2.1c-.69,3.74.07,7.37.69,11,.9,5.37,1.7,10.73.78,16.23-.63,3.77-1,7.62-.05,11.46.73,2.82-.81,5.33-1.3,8-.07.35-.26.68-.34,1-.15.66,0,1.78-1.09,1.33-.77-.32-1.77-1-1.29-2.26.58-1.59,1.1-3.2,1.67-4.79a3.19,3.19,0,0,0,.07-2c-1-4.2-.46-8.39,0-12.61.35-3.16,1.05-6.46.11-9.49-.81-2.62-.57-5.36-1.54-7.92-.33-.86.23-2,.17-3-.24-3.87-.57-7.74-.89-11.6,0-.31-.11-.59.16-.83,1.42-.81.92-1.85.34-2.9l.12-.14a8.57,8.57,0,0,0,5.12.64,8.56,8.56,0,0,1,3.74.62,16.4,16.4,0,0,0,6.76.71,20,20,0,0,1,3.57.17c3.29.15,6.53-.7,9.87-.06,1.61.31,3.48-.18,5.23-.15,5.29.08,10.48-1.08,15.76-1.18,2.05,0,4.14-.78,6.15-1.07,2.23-.33,4.14-2,6.53-1.43A2.59,2.59,0,0,0,192,18.4a2.6,2.6,0,0,1,2.63-.62c-.14.52-.8.17-1,.58,1.88,1.08,2.72.88,2.83-.65.51-1.11,1.7-.55,2.48-1,.53,1.1-1.21.37-.87,1.54C198.17,18.62,199.14,17.69,199.34,18.55Z"/><path class="cls-1" d="M194.29,116.94c0-1.52-.12-3,0-4.56.2-4.2-.72-8.37-.36-12.56.42-4.81,1.2-9.6,1.4-14.42.12-2.85,1-5.6.8-8.49A63.28,63.28,0,0,1,197,64.6c.32-2.35,0-4.75.37-7.19.55-3.31,1.87-6.38,2.44-9.66.64-3.68,1.59-7.28,1.81-11,.24-4.17.95-8.31,1.24-12.47.19-2.78.93-5.7-.94-8.27,1.72-1.58,1.91-2.66.53-2.9-1.87-.33-2.8-3.69-5.29-1.62-2-1-1.85.41-1.87,1.64-1.22,0-2.42-.52-3.67-.06a.73.73,0,0,1-1-.64c.35-.2,1-.24.53-.9a10.66,10.66,0,0,1-.9-2.43c1.1,1.35,2.3,1.07,3.56.26,1.67-1.07,2.42,1.2,3.69,1.08s2.72-1.09,3.36,1c.05.16.17.39.3.43,4.85,1.56,4.49,5.7,4.35,9.42-.18,4.63-.81,9.25-1.41,13.85-.28,2.12,0,4.3-.43,6.33-.61,2.68-1.16,5.41-2,8-1.56,4.83-1.76,9.82-2.45,14.77-.85,6.1-.6,12.25-1.52,18.32-.73,4.84-1.11,9.74-1.55,14.63-.55,6.14.82,12.26.32,18.4-.06.7.25,1.48-.47,2C195.5,117.08,195,116.67,194.29,116.94ZM191.51,10.81c1.24,1.9,2.1.91,3.07.16.35-.27.56-.43.35-.82s-.49-.26-.88-.17C193.18,10.15,192.62,11,191.51,10.81Z"/><path class="cls-1" d="M217.46,205.62a3.62,3.62,0,0,1-1.26-2.63c-.51-4.24-2.71-7.84-4.34-11.63-.31-.72-.11-1.28-.27-1.89a64.69,64.69,0,0,0-2.95-8.91c-1.85-4.41-3.11-9-4.66-13.52-1.35-3.93-2.88-7.79-4-11.8a190.41,190.41,0,0,1-4.93-21,76.47,76.47,0,0,1-.46-9.23c-.06-1.73,0-3.47,0-5.21.42,0,.15.85.81.63s.68-.83.76-1.38c1,.37.61,1.23.64,1.89.22,5,.18,10,1.11,15s1.72,10.07,3.16,15,3.05,10.06,4.7,15c1.45,4.37,2.78,8.84,4.68,13.1a92.31,92.31,0,0,1,3.66,10.4c.85,2.76,1.8,5.53,2.81,8.26.74,2,1.32,4,2,6.05.18.54.34,1.06-.15,1.52C218.23,205.12,217.75,205,217.46,205.62Z"/><path class="cls-1" d="M77.32,259.32a2.42,2.42,0,0,0-1.65-.75c-.76-.21-.55-.86-.56-1.36a36.09,36.09,0,0,1,1-10.09,86.29,86.29,0,0,0,2.71-13.49c0-.21.22-.41.34-.61,1,1.15.12,2.46.26,3.7.11,1,.47.47.83.3a63.76,63.76,0,0,1-2.16,11.84,13.08,13.08,0,0,0-.6,6A7,7,0,0,1,77.32,259.32Z"/><path class="cls-1" d="M121.5,17.43c-1.1.43-1.23,1.17-.92,2.25.26.92,1,2.37-.24,2.7-.91.26-1.25-1.18-1.59-2.19-.21-.64.49-1.87-.89-2l-.09-.72c.34-.83-.52-1.73.09-2.54.85.08.59,1.67,1.45,1.18.68-.39-.8-.77-.47-1.45a2.06,2.06,0,0,0,.1-.53c.35,0,.84-.06,1,.14,1.43,1.44,2.19.2,2.72-.8.69-1.29,1.3-1.64,2.72-.89a2.18,2.18,0,0,0,3-1.08c.87-1.54,2-1.86,3.19-.58a1.21,1.21,0,0,0,2-.27c1-1.76,2.47-1.47,4-1.22.18,1-1.11,1.54-.62,2.8a1.76,1.76,0,0,0-2.55,0,3.8,3.8,0,0,1-3.13.73,4.41,4.41,0,0,1-1.84-.33c-.69-.43-1.24-.18-1.17.63.13,1.57-.76,1.79-2,1.75-1.71-.07-4.3,1.28-4.8,2.49Z"/><path class="cls-1" d="M224.89,227.54c-.24-.3-.5-.88-.71-.86-.69.07-.43.67-.44,1.13,0,.29-.24.37-.5.39-1.11-3.33-1.68-6.79-2.51-10.19-.75-3.09-1.92-6.07-2.93-9.1-.2-.59-.56-1.16.34-1.47.3.57.09,1.8,1.4,1.09a9.21,9.21,0,0,1,1.76,3.83c.95,3,1.7,6.12,2.54,9.18a3.7,3.7,0,0,0,.52,1.52C225.67,224.44,225.1,226,224.89,227.54Z"/><path class="cls-1" d="M157.68,7.19c1.58-.06,2.79-1.14,4.23-1.59a1,1,0,0,1,1.36.39c.42.57,1,1.7,1.35,1.46,1-.72,2.63-.35,3.29-1.69.74-.9,1.64-.65,2.55-.38.26.66.15,1.76,1.43,1.24a1.48,1.48,0,0,0,1.15.05l.69.06c1.07.14,2.13.28,1.67-1.4.78.05,1.05.84,1.67,1.14l.85,1.45c-1,.3-.86,1.72-2,1.85-.17-2.18-.4-2.12-2.37-1.17a4.09,4.09,0,0,1-3.87-.15,3.18,3.18,0,0,0-3.53,0c-1.34,1.08-2.61.52-3.57.1a3.3,3.3,0,0,0-3.32.25c0-.67-.47-.82-1-.73C157.42,8.23,157.69,7.63,157.68,7.19Z"/><path class="cls-1" d="M121.5,17.43c.5-1.21,3.09-2.56,4.8-2.49,1.22,0,2.11-.18,2-1.75-.07-.81.49-1.05,1.17-.63a4.41,4.41,0,0,0,1.84.33,3.8,3.8,0,0,0,3.13-.73,1.76,1.76,0,0,1,2.55,0c-.49-1.26.8-1.82.62-2.8h.53c-.26,1.2.8,1.74,1.29,2.57-.95,2.34-1.17,2.46-3.28,1.18-.66-.4-1.12-.44-1.55.15a2.44,2.44,0,0,1-2.68.89,4.19,4.19,0,0,0-3.85,1.11c-.51.52-1.15,1.27-2.17.45-.49-.4-1.11.24-1.62.56C123.42,16.85,122.65,17.6,121.5,17.43Z"/><path class="cls-1" d="M195.26,13.08c0-1.23-.09-2.62,1.87-1.64,2.49-2.08,3.42,1.28,5.29,1.62,1.38.24,1.19,1.32-.53,2.9a.82.82,0,0,0-.72.76c-1.13-.13-1.57.37-1.36,1.48l-.47.36c-.2-.87-1.16.07-1.32-.29-.34-1.17,1.39-.44.87-1.54.38-1.12-.79-1.43-1.13-2.19.21-.2.4-.41.62-.59.4-.34,1-.58.81-1.25s-.88-.69-1.5-.62c-.29,0-.59,0-1.18,0,1.9,1,.9,1.25-.12,1.5Z"/><path class="cls-1" d="M188.69,10.88a3.62,3.62,0,0,0-2.18.66c-2,1.28-4.43.35-4.75-1.72l.29-.3c.53.14.17,1.43,1.12.93.68-.36.77-1,.32-1.67a2.58,2.58,0,0,1-.2-.85,34,34,0,0,0,5.43.37c-.49.57-.4,1.57-1.45,1.67C187.75,10.53,188.55,10.13,188.69,10.88Z"/><path class="cls-1" d="M176,9.77c1.11-.13,1-1.55,2-1.85l-.85-1.45c1.38.13,2.78.21,4.15.42.61.09,1.37.09,1.67.87-.83.15-2-1-2.47.31-.6,1.54,1.4.59,1.62,1.45l-.29.3a11.63,11.63,0,0,1-3.4,1.4C177.19,11.35,176.17,11.21,176,9.77Z"/><path class="cls-1" d="M142.95,8.27a3,3,0,0,0,2.24-1.36c.57-.94,1.53-.29,2.2-.68.21,1.16,2,1,2,2.37,0,.7-.36.6-.94.54-1.38-.16-3.09-1.24-3.87,1C143.62,9.83,143.57,8.8,142.95,8.27Z"/><path class="cls-1" d="M81.05,227.18c.54,2,.12,6.6-.7,7.67.58-1.83-.36-3.54-.43-5.32,0-.18.08-.57-.31-.4-.16.07-.21.39-.3.6-.91-1.26-.12-2.26.5-3.29C80.41,226.38,80.38,227.37,81.05,227.18Z"/><path class="cls-1" d="M139.42,12c-.49-.83-1.55-1.36-1.29-2.57a3.72,3.72,0,0,1,4.71-1.13c0,1-1,1.64-1.08,2.66-.51-.55-1.2-.24-1.8-.38,0-.05.05-.11,0-.16s-.06-.09-.09-.13l.1.27Z"/><path class="cls-1" d="M157.68,7.19c0,.44-.26,1,.64.87.51-.1,1,.06,1,.73A7.33,7.33,0,0,1,157.63,10c-.58.22-1.43.5-1.78-.5l1.44-.1c.27,0,.46-.13.45-.42s0-.6-.34-.47c-.85.38-1.5-.73-2.33-.25l-.58,0c-.35-.82.83-.84.77-1.5C156.07,6.86,157,6.48,157.68,7.19Z"/><path class="cls-1" d="M188.69,10.88c-.14-.75-.94-.35-1.41-.9,1-.11,1-1.1,1.45-1.67l.38,0c.11.4.44.33.73.36l.35.36a10.66,10.66,0,0,0,.9,2.43c.5.66-.19.7-.53.9-.2-.58-.74-.26-1.11-.41a.87.87,0,0,0-.64-.87A.19.19,0,0,0,188.69,10.88Z"/><path class="cls-1" d="M155.25,6.83c.05.66-1.13.68-.77,1.5-1.15,1.16-2.53-.7-3.76.3.91-.26,1.67-.43,2.1-1.46S154.29,6,155.25,6.83Z"/><path class="cls-1" d="M141.75,10.92c0-1,1.12-1.61,1.08-2.66h.11c.63.54.68,1.57,1.58,1.86C143.76,11.78,143,12,141.75,10.92Z"/><path class="cls-1" d="M79.31,229.73c.1-.21.14-.53.3-.6.39-.17.3.22.31.4.07,1.78,1,3.49.43,5.32L80.22,237c-.37.17-.72.71-.83-.3-.14-1.23.77-2.54-.26-3.7l0-1.47c.51-.29.29-.72.22-1.11Z"/><path class="cls-1" d="M118.94,14.11a2.06,2.06,0,0,1-.1.53c-.33.68,1.16,1.06.47,1.45-.86.5-.6-1.09-1.45-1.18-.61.81.25,1.72-.09,2.54a2.76,2.76,0,0,1-.71-3.21C117.35,13.54,118.27,13.58,118.94,14.11Z"/><path class="cls-1" d="M182.05,9.52c-.22-.86-2.22.09-1.62-1.45.51-1.31,1.64-.17,2.47-.31l.39.17a2.58,2.58,0,0,0,.2.85c.45.69.36,1.31-.32,1.67C182.22,11,182.58,9.66,182.05,9.52Z"/><path class="cls-1" d="M196.39,13.59c1-.25,2-.5.12-1.5.59,0,.89,0,1.18,0,.62-.07,1.27-.08,1.5.62s-.41.91-.81,1.25c-.22.19-.41.4-.62.59C197.07,14.56,196.52,14.38,196.39,13.59Z"/><path class="cls-1" d="M196.14,119c-.08.55,0,1.14-.76,1.38s-.39-.62-.81-.63c.06-1-.65-1.83-.28-2.81.74-.27,1.21.14,1.66.64Z"/><path class="cls-1" d="M219.54,208.52c-1.3.71-1.09-.52-1.4-1.09.15-.75-1-1-.69-1.81.29-.58.77-.5,1.27-.38l.05.72a1.22,1.22,0,0,0,.6,1.57Z"/><path class="cls-1" d="M81.05,227.18c-.67.18-.64-.8-1.24-.74a6.27,6.27,0,0,1,.38-2.57c.29-.14.53-.55.92-.19.23.22.42.63.18.77-1,.6-.23,1.33-.21,2Z"/><path class="cls-1" d="M77,289.25c.27.48.31,1,.9,1.41s1.2,1.16.17,1.89A2.2,2.2,0,0,1,77,289.25Z"/><path class="cls-1" d="M196.41,17.72c-.11,1.53-1,1.73-2.83.65.21-.41.87-.07,1-.58Z"/><path class="cls-1" d="M175.42,5.33c.46,1.68-.61,1.54-1.67,1.4a1,1,0,0,1,1-1c.37.13.54-.08.63-.4Z"/><path class="cls-1" d="M155.06,8.3c.83-.48,1.48.63,2.33.25.29-.13.34.24.34.47s-.18.4-.45.42l-1.44.1C155.32,9.29,155.27,8.74,155.06,8.3Z"/><path class="cls-1" d="M170.48,5.38c-.91-.27-1.82-.52-2.55.38-.06-.69.22-1.23.9-1.29S170.28,4.44,170.48,5.38Z"/><path class="cls-1" d="M76.46,272.75l-.8.41a1.37,1.37,0,0,1,.06-1.74C76.24,271.71,76.22,272.3,76.46,272.75Z"/><path class="cls-1" d="M82,307.46,83,309C82.3,308.75,81.16,308.74,82,307.46Z"/><path class="cls-1" d="M79.71,301.3l.17,1.49C78.83,302.41,78.92,301.89,79.71,301.3Z"/><path class="cls-1" d="M219.38,207.54a1.22,1.22,0,0,1-.6-1.57C219.67,206.22,219.4,206.93,219.38,207.54Z"/><path class="cls-1" d="M80.59,304.27c.33,0,.72-.19.89.23s-.22.61-.4.88C80.51,305.19,80.57,304.72,80.59,304.27Z"/><path class="cls-1" d="M173.06,6.67a1.48,1.48,0,0,1-1.15-.05C172.32,5.93,172.7,5.93,173.06,6.67Z"/><path class="cls-1" d="M79.32,230.43c.07.4.3.83-.22,1.11C78.67,231.08,78.65,230.69,79.32,230.43Z"/><path class="cls-1" d="M75.49,277.2c.54.27.33.72.27,1.13C74.92,278.13,75.31,277.64,75.49,277.2Z"/><path class="cls-1" d="M78,294.75c.55.2,1.5.19.6,1.15C78,295.72,78,295.24,78,294.75Z"/><path class="cls-1" d="M188.81,11.1a.87.87,0,0,1,.64.87C188.91,11.92,188.73,11.6,188.81,11.1Z"/><path class="cls-1" d="M189.84,8.68c-.29,0-.62,0-.73-.36C189.66,7.82,189.76,8.23,189.84,8.68Z"/><path class="cls-1" d="M76.56,286l.49.15-.49.15A.37.37,0,0,1,76.56,286Z"/><path class="cls-1" d="M140,10.52l-.1-.27s.08.08.09.13,0,.1,0,.16Z"/><path class="cls-1" d="M150.17,9.65l-.06.17.12,0Z"/><path class="cls-1" d="M175.43,5.37c-.09.32-.26.52-.63.4C174.86,5.4,175.12,5.35,175.43,5.37Z"/><path class="cls-1" d="M188.35,69c-.44-2.68.3-5.29.91-7.8s.56-5.27,1.25-7.84c1-3.6,1.11-7.36,2-11,.86-3.47,1.85-7,1.72-10.61,0-.5,0-1,.66-1.13,0,.75.2,1.36,1.17.91a1.76,1.76,0,0,1,.59,2.11,93.07,93.07,0,0,0-1.88,9.32c-.7,3.89-1.86,7.72-2.19,11.74-.28,3.42-.54,7-1.83,10.29a6.52,6.52,0,0,0-.2,2.34,4.4,4.4,0,0,1-.68,2.76c-.37,0-.92.29-.75-.54C189.26,68.86,188.95,68.66,188.35,69Z"/><path class="cls-1" d="M113.48,149.34c-.45,3.45-.83,6.85-2.24,10.16-.93,2.18-2.41,4.13-2.91,6.49-.62,2.95-2.54,5.32-3.52,8.13-.34,1-.16,2.23-1.14,3-.47.13-.85.22-.75-.54,0-.31.52-1-.43-1,1.21-3.78,3-7.35,4.34-11.05,1.72-4.68,4.33-9.11,4.8-14.21.05-.56.09-1.1.7-1.36C112.7,149.19,113,149.58,113.48,149.34Z"/><path class="cls-1" d="M185.47,92.39c.87-3.21.43-6.59,1.3-9.77.25-.92-.94-2.05.45-2.71A1.85,1.85,0,0,0,188.37,81c.87.15.78.84.71,1.42-.58,5.17-1.19,10.34-1.78,15.52-.05.44-.11.85-.62,1a1.26,1.26,0,0,0-1.09-1.26c-.57,2.38.22,4.61.14,6.86,0,.58.37.68.85.6,0,1.84.32,3.72-.49,5.49-.53-.84-.16-1.82-.46-2.72-.2-.61-.38-.77-.93-.59-.55-.54-.11-1.12-.11-1.69a49.66,49.66,0,0,1,.86-10.73c1.18-.28,2.13-2.46,1.42-3.33-.23-.29-.66-.49-.71.16C186.13,92.21,185.87,92.35,185.47,92.39Z"/><path class="cls-1" d="M187.35,135.84c.49.07.78.22.32.72-1.51,1.15-.74,2.36,0,3.56v-1.38c.62.15.67.63.66,1.14-.06,4.71,1.55,9.19,1.94,13.85.05.64.56,1.46-.41,1.63s-1-.79-1.12-1.4a64.71,64.71,0,0,0-1.86-9.2c-1.09-4-1.18-8.25-1.79-12.37-.12-.78-.36-1.71.4-2.41.47.38.15.88.17,1.32s-.09,1,.66,1c.6,0,.62-.41.62-.85s0-.71.05-1.07c.72,1.3,1.54,2.59.27,4-2.43,0-.7,1.6-.92,2.48Z"/><path class="cls-1" d="M186.53,124c.6,1.23,1.08,2.47.3,3.8-1.42-.85-.75.91-1.36,1.08-.67-.3-.73-.89-.75-1.52-.12-4.27-.26-8.53-.37-12.8,0-.64-.2-1.36.5-1.82s.82.41,1.3.42c.33.18.67.41.6.81a19.06,19.06,0,0,0,.13,6.79,1.21,1.21,0,0,1-.32,1.17c-.73.29-1.31.72-1.11,1.63C185.6,124.15,186,124.24,186.53,124Z"/><path class="cls-1" d="M103.62,178.22a17.14,17.14,0,0,1-2.86,7.51c-.63.88-.8,2.48-1.15,3.76-.25.93-.34,2-1.35,2.59-.84-.27-.87,1.67-2,.72,1-2.11.88-4.81,3.08-6.37a.52.52,0,0,0,.17-.42,11.78,11.78,0,0,1,2.54-7.42C102.38,177.55,103.28,179.06,103.62,178.22Z"/><path class="cls-1" d="M207.74,206.71a9.35,9.35,0,0,0-1.24-4.55,3.89,3.89,0,0,1-.38-2.39,3.91,3.91,0,0,0-.68-3.28,8.6,8.6,0,0,1-1.65-3.84c-.09-.41-.82-1-.08-1.36a1.26,1.26,0,0,1,1.72.89c.12,1.49,1.07,2.61,1.37,4,.72,3.4,1.59,6.76,2.4,10.14C208.66,206.26,208.31,206.91,207.74,206.71Z"/><path class="cls-1" d="M88.43,226.46c2.14,1.34,1.13,3.32.83,4.76-.49,2.36-1.37,4.65-1.75,7.08-.1.64-.85,1.18-1.31,1.76-.34.43-.67,0-.95-.09-.63-.29-.37-1.05-.21-1.26,1.89-2.49,1.32-5.73,2.67-8.39C88.3,229.16,87.51,227.67,88.43,226.46Z"/><path class="cls-1" d="M93.53,202.71c-.37,1.49-1.28,2.87-.23,4.54.41.66-.51,1.52-.78,2.3,0,.13-.67.14-1,.09-.51-.08-.34-.53-.37-.87-.24-3.07.89-5.83,1.94-8.61C93.73,200.92,93.31,201.87,93.53,202.71Z"/><path class="cls-1" d="M113.48,149.34c-.49.24-.78-.16-1.14-.36a9,9,0,0,1,.39-2.93c.36-.15.37-.42.28-.74l.11-.69c1.23-.23,1.23-.75.35-1.48-.27-1.12.53-1.93.82-2.89,1.35-.27.53,1.13,1.11,1.44l-.09,1.45c-.24.49-1.37.51-.8,1.45l0,.71c-.49.74-.26,1.85-1.21,2.39a4.81,4.81,0,0,0,.32.95Z"/><path class="cls-1" d="M208.83,209.3a2.42,2.42,0,0,1-.47-1.48c0-.86.54-.92,1.2-.73,1.43,2.36,2,5,2.65,7.64-1.81,1.76-1.31-.72-2-1.07l-.07-1.09a.69.69,0,0,0-.27-.74l0-.73A1.66,1.66,0,0,0,208.83,209.3Z"/><path class="cls-1" d="M196.07,31.49c-1,.45-1.13-.16-1.17-.91.35-.68,1-1.32.39-2.17l-.08-1.48a.86.86,0,0,0,.12-.33c.54-.46,1.34.38,1.82-.36.45,0,.63.36.81.7-.08.31-.11.61.28.74C197.56,29,197.28,30.49,196.07,31.49Z"/><path class="cls-1" d="M96.3,192.8c1.09.94,1.12-1,2-.72-1.09,1.63-1.39,3.65-2.64,5.2-.32.4-.56.78-1.14.65l-.07-.37C95.37,196.11,95.59,194.35,96.3,192.8Z"/><path class="cls-1" d="M115.41,141.69c-.59-.32.23-1.71-1.11-1.44-.73-.94,0-1.37.63-1.85.73-.18,1.89.4,1.89-1.09,0-1.31-.93-.65-1.5-.74.3-.7.46-.79,1.06-.73s1.19.48,1.05,1.18A12.94,12.94,0,0,1,115.41,141.69Z"/><path class="cls-1" d="M187.28,77a4.86,4.86,0,0,1,.63-4.76c.39.87-.41,2.32,1.25,2.58.34.24.32.48,0,.71A7.7,7.7,0,0,1,187.28,77Z"/><path class="cls-1" d="M186.17,113.17c-.47,0-.69-.83-1.3-.42l-.22-3.22v-.39l0-1.82c.56-.18.73,0,.93.59.3.9-.07,1.89.46,2.72Z"/><path class="cls-1" d="M186.58,105.14c-.48.07-.87,0-.85-.6.08-2.25-.71-4.48-.14-6.86a1.26,1.26,0,0,1,1.09,1.26l0,3.26a3.35,3.35,0,0,0,0,1.86Z"/><path class="cls-1" d="M94.41,197.56l.07.37c1.34,1.92-.37,3.24-1,4.78-.22-.84.21-1.79-.46-2.55C92.62,198.83,93.53,198.21,94.41,197.56Z"/><path class="cls-1" d="M189.16,74.82c-1.66-.26-.85-1.71-1.25-2.58a8.22,8.22,0,0,0,.44-3.28c.6-.29.91-.09.78.55-.17.83.38.53.75.54l-.37,2.57a1.44,1.44,0,0,0-.3,1.47Z"/><path class="cls-1" d="M187.28,77a7.7,7.7,0,0,0,1.87-1.47c.3,1.91-1,3.59-.78,5.49a1.85,1.85,0,0,1-1.15-1.11l0,0,.26-.08-.25-.21Z"/><path class="cls-1" d="M185.48,128.89c.6-.17-.06-1.93,1.36-1.08a6,6,0,0,0,.21,2.53c0,.36-.05.71-.05,1.07s0,.84-.62.85c-.76,0-.63-.49-.66-1s.3-.94-.17-1.32Z"/><path class="cls-1" d="M210.24,213.66c.66.35.17,2.83,2,1.07.46.1.76.26.3.74-1.07.18-1,1.08-1.2,1.85A2.71,2.71,0,0,1,210.24,213.66Z"/><path class="cls-1" d="M185.47,92.39c.4,0,.65-.18.69-.66.05-.65.47-.45.71-.16.71.87-.23,3-1.42,3.33Z"/><path class="cls-1" d="M127,21.12c.58,1,1.08,2.09-.34,2.9,0-.5.07-1.1-.72-1.13C126.15,22.24,125.16,20.84,127,21.12Z"/><path class="cls-1" d="M87.22,291c-.63-1-1.69-1.83-1.4-3.23C86.77,288.67,88.06,289.39,87.22,291Z"/><path class="cls-1" d="M115.31,136.56c.58.09,1.51-.57,1.5.74,0,1.49-1.16.9-1.89,1.09A3,3,0,0,1,115.31,136.56Z"/><path class="cls-1" d="M113.59,148.63a4.81,4.81,0,0,1-.32-.95c.95-.54.72-1.65,1.21-2.39C115,146.61,115,147.81,113.59,148.63Z"/><path class="cls-1" d="M186.53,124c-.52.24-.93.15-1.07-.44-.2-.91.38-1.33,1.11-1.63C186.51,122.62,187.12,123.32,186.53,124Z"/><path class="cls-1" d="M187.71,138.74v1.38c-.78-1.2-1.56-2.41,0-3.56Z"/><path class="cls-1" d="M103.62,178.22c-.33.84-1.24-.67-1.52.37.17-1-.18-2.05.41-3,.95-.06.47.64.43,1-.1.76.28.67.75.54Z"/><path class="cls-1" d="M213.3,219.14l-.07-1.48c.76,0,1.62.2,1.57,1S213.83,219,213.3,219.14Z"/><path class="cls-1" d="M187.35,135.84l-1,1c.21-.88-1.51-2.49.92-2.48Z"/><path class="cls-1" d="M215.21,228,215,226.1c.48,0,1,0,1.09.62S216,227.9,215.21,228Z"/><path class="cls-1" d="M213.21,226.07c.87.49.92,1.35,1,2.21C213.63,227.65,212.6,227.22,213.21,226.07Z"/><path class="cls-1" d="M208.83,209.3a1.66,1.66,0,0,1,1.06,1.81C208.51,211.1,208.9,210.06,208.83,209.3Z"/><path class="cls-1" d="M209.56,207.09c-.66-.19-1.18-.13-1.2.73-.64-.13-.66-.6-.62-1.11.57.2.92-.45,1.46-.37A.77.77,0,0,1,209.56,207.09Z"/><path class="cls-1" d="M199.81,18.19c-.21-1.1.23-1.61,1.36-1.48A1.6,1.6,0,0,1,199.81,18.19Z"/><path class="cls-1" d="M213.74,222.45a4.23,4.23,0,0,1-.07-2.24C214.62,220.93,214.41,221.68,213.74,222.45Z"/><path class="cls-1" d="M82.66,270.37c-.49-.43-.28-1-.34-1.53a.87.87,0,0,1,1,.71C83.46,270.06,83.11,270.28,82.66,270.37Z"/><path class="cls-1" d="M89.67,296.34c-.84-.47-.45-1.46-.9-2.1C90.37,294.38,89.39,295.63,89.67,296.34Z"/><path class="cls-1" d="M197.15,26.23c-.48.75-1.28-.09-1.82.36C195.73,25.44,196.42,25.75,197.15,26.23Z"/><path class="cls-1" d="M186.69,104.06a3.35,3.35,0,0,1,0-1.86C187.56,102.79,187.52,103.41,186.69,104.06Z"/><path class="cls-1" d="M215.52,236.63c1.1.31,0,1,.28,1.5C214.76,237.81,214.91,237.26,215.52,236.63Z"/><path class="cls-1" d="M218.22,252.36l.22,1.82C217.27,253.7,217.47,253.06,218.22,252.36Z"/><path class="cls-1" d="M114.52,144.58c-.57-.94.55-1,.8-1.45C115.79,144,115.33,144.4,114.52,144.58Z"/><path class="cls-1" d="M113.47,143.13c.88.73.87,1.25-.35,1.48C113.12,144.09,113,143.54,113.47,143.13Z"/><path class="cls-1" d="M189.21,74.09a1.44,1.44,0,0,1,.3-1.47C189.92,73.22,190,73.75,189.21,74.09Z"/><path class="cls-1" d="M195.21,26.93l.08,1.48C194.24,28,194.27,27.47,195.21,26.93Z"/><path class="cls-1" d="M212.49,224.24c.32.31,1,.43.68,1.1C212.6,225.19,211.9,225.12,212.49,224.24Z"/><path class="cls-1" d="M216.86,244c.5.26.32.7.29,1.11C216.43,244.88,216.35,244.51,216.86,244Z"/><path class="cls-1" d="M82.94,265.2a1.42,1.42,0,0,1,0-1.17C83.63,264.43,83.62,264.82,82.94,265.2Z"/><path class="cls-1" d="M113,145.31c.1.32.08.6-.28.74C112.27,145.6,112.56,145.42,113,145.31Z"/><path class="cls-1" d="M198.24,27.67c-.39-.13-.36-.43-.28-.74C198.39,27,198.75,27.2,198.24,27.67Z"/><path class="cls-1" d="M209.9,211.83a.69.69,0,0,1,.27.74C209.69,212.47,209.48,212.26,209.9,211.83Z"/><path class="cls-1" d="M218.51,217.77l-.29,0a1.63,1.63,0,0,1,0-.29s.14,0,.15,0A1.74,1.74,0,0,1,218.51,217.77Z"/><path class="cls-1" d="M212,219.46a.76.76,0,0,1,0,.79C211.38,220,211.38,219.73,212,219.46Z"/><path class="cls-1" d="M105.25,293.28l-.22.19a1.89,1.89,0,0,1-.14-.26s.1-.11.12-.09A1.53,1.53,0,0,1,105.25,293.28Z"/><path class="cls-1" d="M83.87,256.78l-.74-.17c0-.25.19-.48.44-.37S83.77,256.6,83.87,256.78Z"/><path class="cls-1" d="M215,234.12a.53.53,0,0,1,.28.74C214.84,234.75,214.56,234.57,215,234.12Z"/><path class="cls-1" d="M214.68,231.55c.36.15.37.43.26.75C214.47,232.19,214.2,232,214.68,231.55Z"/><path class="cls-1" d="M212.14,221.32c.28.17.65.31.31.74C212,222,211.64,221.82,212.14,221.32Z"/><path class="cls-1" d="M214.3,229.36a.54.54,0,0,1,.27.74C214.11,230,213.85,229.81,214.3,229.36Z"/><path class="cls-1" d="M215.93,229.76a.71.71,0,0,1,0-.79C216.56,229.25,216.51,229.51,215.93,229.76Z"/><path class="cls-1" d="M214.23,223.91c-.47-.05-.58-.31-.4-.72C214.31,223.23,214.84,223.25,214.23,223.91Z"/><path class="cls-1" d="M214.69,225.34c-.38-.12-.36-.43-.35-.73C214.8,224.69,215.19,224.8,214.69,225.34Z"/><path class="cls-1" d="M215.74,223.69l.21.2a1.56,1.56,0,0,1-.24.16s-.12-.08-.12-.1A1.82,1.82,0,0,1,215.74,223.69Z"/><path class="cls-1" d="M184.65,109.14v.39c-.1,0-.28-.06-.29-.13C184.29,109.17,184.5,109.18,184.65,109.14Z"/><path class="cls-1" d="M218.26,250.9l.05.38-.41-.16Z"/><path class="cls-1" d="M218.25,249.81v.39c-.11,0-.29-.06-.31-.12C217.88,249.82,218.09,249.84,218.25,249.81Z"/><path class="cls-1" d="M187.27,79.58l.25.21-.26.08A.43.43,0,0,1,187.27,79.58Z"/><path class="cls-1" d="M206.64,693.22a3.88,3.88,0,0,1-5.47,3.62c-.82-.33-.78-.84-.67-1.42.16-.79.1-2,1.17-1.95a2.49,2.49,0,0,0,2.24-1.2,2,2,0,0,1,2.3-.61C206.93,691.89,206.47,692.74,206.64,693.22Z"/><path class="cls-1" d="M94.05,695.12A3.93,3.93,0,0,1,91.86,699c-.85.48-1.9-.21-2.72-.9s-1-1.27-.52-2,.29-2,1.89-1.56A2.45,2.45,0,0,0,93,693.4c.15-.26-.06-.84.56-.6a.49.49,0,0,1,.31.72C93.56,694.14,94.52,694.62,94.05,695.12Z"/><path class="cls-1" d="M175.81,474c2.33-1.31,5-1.28,7.46-1.19,2,.07,3.9-.25,5.84-.33.53,0,1-.26,1.05.46s-.45.42-.81.56c-2.21.9-4.44.51-6.7.34a14.51,14.51,0,0,0-4.51.45,3.34,3.34,0,0,1-2.36-.31Z"/><path class="cls-1" d="M283.36,572.39a1.58,1.58,0,0,1,1.05,1.89.41.41,0,0,1-.55.31C282.88,574.06,283.71,573.1,283.36,572.39Z"/><path class="cls-1" d="M223.71,449.4c.6,1.28-.63,1-1.16,1.57,0-1,1-.94,1.15-1.54Z"/><path class="cls-1" d="M225.92,448a1.39,1.39,0,0,1,1.18-.81l.18.1C226.94,447.7,226.74,448.31,225.92,448Z"/><path class="cls-1" d="M224.74,449.45c-.35,0-.72.75-1,0v0c.36-.07.72-.37,1.07,0Z"/><path class="cls-1" d="M225.13,448.44l.35,0s0,.07,0,.1l-.41-.1Z"/><path class="cls-1" d="M224.75,448.81c.26,0,.35-.16.39-.37l0,0c.37.63-.15.37-.39.38Z"/><path class="cls-1" d="M224.72,448.8c.22.21.08.43,0,.64h0c-.39-.19-.11-.42,0-.64Z"/><path class="cls-1" d="M97,363.5c-.5-1.35-1.56-2.27-.65-3.56C96.3,361.08,97.64,361.94,97,363.5Z"/><path class="cls-1" d="M191.51,10.81c1.11.22,1.67-.66,2.54-.84.4-.08.67-.21.88.17s0,.55-.35.82C193.61,11.72,192.75,12.71,191.51,10.81Z"/><path class="cls-1" d="M169.78,452.17a1.37,1.37,0,0,1-.87,1.4c-1.25.63-1.52,1.26-.25,2.15.24.17.53.62.25.74-1.32.55-1.17,1.91-1.72,2.87-.33.57-1.11,1.39-1.72.71s-1.44-1.82-.57-2.73.87-2.45,2.39-3c.83-.3-.15-1.09-.3-1.65s-.47-1.15.1-1.66a1.78,1.78,0,0,1,1.82-.53A1.57,1.57,0,0,1,169.78,452.17Z"/><path class="cls-1" d="M160.6,447.53c.87-.79.73-2.14.83-3.46a.73.73,0,0,1,1-.43c.65.29,1.63-.14,1.92,1,.16.63.64,1.31-.07,1.74s-.56.75-.38,1.27.57,1.15-.19,1.73-1.59.18-2.37,0S160.54,448.51,160.6,447.53Z"/><path class="cls-1" d="M201.92,443.47c-1,.07-1.9-1.53-1.34-2.47a12.75,12.75,0,0,0,1.38-2.83c.14-.46.55-.59,1-.56,1,.07,1.11,1.13,1.73,1.65.34.29-.1.71-.38.86-.85.46-1.34.91-1,2.07C203.54,443.1,202.42,443.12,201.92,443.47Z"/><path class="cls-1" d="M122.6,444.91c.21-.92-.26-2.67,1.81-1.19.75.54,2.46-.42,2.57,1.39.05.88,0,2-1.43,1.52a2.16,2.16,0,0,0-1.22,0C122.92,446.93,122.39,446.32,122.6,444.91Z"/><path class="cls-1" d="M196.21,451.2c-.29.73-.05,1.11.72,1.31a1.59,1.59,0,0,1,1.33,1.69c0,.61.29,1.39-.87,1.36-.91,0-1.87-.47-1.64-1.22.43-1.38-.24-1.75-1.17-2.33-.47-.3-1.47-.65-.9-1.65.67-1.16,1.59-.3,2.36-.2C196.6,450.21,196.37,450.8,196.21,451.2Z"/><path class="cls-1" d="M137.26,462.88c-.79-.87-2.06-1.22-1.87-2.57a1.72,1.72,0,0,1,2.06-1.46c1.06.14,1.28,1.17,1.2,2.1S137.9,462.31,137.26,462.88Z"/><path class="cls-1" d="M155.49,459.36c0-.87.08-2.11.89-1.81s2.37.51,2.29,1.88a1.91,1.91,0,0,1-2,1.89C155.5,461.26,155.43,460.23,155.49,459.36Z"/><path class="cls-1" d="M183.29,458.75c-.14.74-.07,1.62-1.24,1.59-1.54,0-1.61-1.23-1.69-2.28,0-.62.18-1.55.93-1.42A2.12,2.12,0,0,1,183.29,458.75Z"/><path class="cls-1" d="M101.82,428c0,1.14-.94,1.41-1.68,1.56a1.29,1.29,0,0,1-1.62-1.43c0-.66-.1-1.72.91-1.78A2.17,2.17,0,0,1,101.82,428Z"/><path class="cls-1" d="M135.77,457c-1-.05-1.93-.09-1.86-1.55,0-.95.22-1.54,1.31-1.44a2,2,0,0,1,2,1.89C137.32,457,136.57,457.08,135.77,457Z"/><path class="cls-1" d="M189.13,457.31c.85.1,1.87-.83,2.53.36.33.59,1.12,1.07.7,1.9a1.56,1.56,0,0,1-1.53.7,1.94,1.94,0,0,1-1.66-1.43,4.31,4.31,0,0,1,0-1.59Z"/><path class="cls-1" d="M126.42,455.45A3.28,3.28,0,0,1,128,458a1.11,1.11,0,0,1-1.36,1.25c-1.48-.13-1.4-1.35-1.54-2.26A1.3,1.3,0,0,1,126.42,455.45Z"/><path class="cls-1" d="M146.4,448.7c0,1.27-.1,2.1-1.34,2.09a1.43,1.43,0,0,1-1.63-1.68c0-.77,0-1.67,1.18-1.62C145.59,447.54,146.41,447.87,146.4,448.7Z"/><path class="cls-1" d="M154,442.7c-.17,1.2-.92,2.19-1.87,2.17-1.44,0-.9-1.67-1.35-2.54-.23-.44.34-1.22.66-1C152.25,441.94,153.68,441.42,154,442.7Z"/><path class="cls-1" d="M149.67,461.85c-.9-.23-1.58-.69-1.47-1.71a1.6,1.6,0,0,1,1.6-1.55c.27,0,1.78-.36,1.48,1.09C151.08,460.67,151,461.72,149.67,461.85Z"/><path class="cls-1" d="M89.29,430.23c0-.79-.1-1.66.94-1.41s2.07.32,2.07,1.74c0,1.24-.92,1.58-1.78,1.55C89.36,432.07,89.19,431.08,89.29,430.23Z"/><path class="cls-1" d="M112.91,434c.9-.07,1.46.33,1.28,1.25a1.84,1.84,0,0,1-1.8,1.68,1.34,1.34,0,0,1-1.47-1.62C111.07,434.18,111.88,433.84,112.91,434Z"/><path class="cls-1" d="M172.12,435.71c.8.39,1.54.87,1.3,1.76s-.5,1.72-1.72,1.65a1.53,1.53,0,0,1-1.49-1.61C170.3,436.6,171.34,436.18,172.12,435.71Z"/><path class="cls-1" d="M184.41,449.25c.16,1.53-1.22,1.36-1.9,1.78-.33.21-1.17-.54-1.07-1.35s.43-1.94,1.41-2S184.66,448.11,184.41,449.25Z"/><path class="cls-1" d="M190.3,439.42A1.77,1.77,0,0,1,192,441c.06.81-.29,1.71-1.39,1.7a1.41,1.41,0,0,1-1.49-1.61C189.09,440.36,189,439.48,190.3,439.42Z"/><path class="cls-1" d="M148.84,432.19c.25-.44-.77-1.2.32-1.41.81-.15,2.62,1.41,2.58,2.23s-.91,1.24-1.56,1.32C148.48,434.52,149,433.1,148.84,432.19Z"/><path class="cls-1" d="M197.6,439.27c.5.84.29,1.3-.66,1.34-1.4.05-1.78-1-1.91-2.05-.11-.85.87-1.59,1.27-1.48C197.25,437.31,198.26,437.93,197.6,439.27Z"/><path class="cls-1" d="M141.75,435.83c-.93-.09-1.88-.22-1.95-1.42a1.25,1.25,0,0,1,1.3-1.43c.9.15,2.12.33,2,1.8C143,435.68,142.53,435.9,141.75,435.83Z"/><path class="cls-1" d="M204.21,456.17c-1.6.3-2.18-.53-2.28-1.51s.71-1.36,1.58-1.4c1.63-.08,1.24,1.39,1.51,2.22C205.38,456.55,204.36,456.12,204.21,456.17Z"/><path class="cls-1" d="M153.72,455.06c1.38-.15,1.36,1.07,1.36,2a1.42,1.42,0,0,1-1.77,1.3c-.91-.23-1.1-1.33-1.09-2.21S152.59,454.79,153.72,455.06Z"/><path class="cls-1" d="M111.18,447c-.77.11-1.39-.31-1.37-1.49,0-.91.48-1.65,1.35-1.53a1.82,1.82,0,0,1,1.6,2.06C112.72,446.93,112.32,447.19,111.18,447Z"/><path class="cls-1" d="M128.09,435c.59.6,2,.58,1.8,2-.11.9-.82,1.79-1.59,1.6-.94-.23-1.25-1.35-1.31-2.36C127,435.58,127.17,435.1,128.09,435Z"/><path class="cls-1" d="M176.36,432.21c-.25.75-.4,1.92-1.38,2.07s-1.69-1.14-1.84-1.83c-.22-1,1.14-1.1,1.87-1.38S176.33,431.17,176.36,432.21Z"/><path class="cls-1" d="M119,445.8c.06.78-.11,1.45-1.15,1.32a1.89,1.89,0,0,1-1.79-1.87c-.11-1.5,1.3-1.19,1.94-1.24C118.87,443.94,119.05,444.92,119,445.8Z"/><path class="cls-1" d="M175.56,457.88c-.16.51-.19,1.63-1.18,1.59s-1.52-1.21-1.61-2a1.53,1.53,0,0,1,1.64-1.51C175.29,456,175.67,456.71,175.56,457.88Z"/><path class="cls-1" d="M138.73,449.77c-1-.74-2.32-1-2.13-2.41.07-.5.41-1.41,1.21-1.26a2.22,2.22,0,0,1,1.94,2C139.77,448.62,139.09,449.2,138.73,449.77Z"/><path class="cls-1" d="M183.61,429.58c.24,1.16-.59,1.68-1.49,1.63a1.38,1.38,0,0,1-1.46-1.55c.11-.86.55-1.65,1.42-1.48C182.65,428.3,184,428.11,183.61,429.58Z"/><path class="cls-1" d="M107.29,443.81c0,.66.1,1.47-.88,1.46-1.51,0-1.68-1.34-2-2.35-.23-.79.47-.93,1.14-.92A1.52,1.52,0,0,1,107.29,443.81Z"/><path class="cls-1" d="M131.32,450.11c1.51-.2,1.91.33,1.87,1.19a1.66,1.66,0,0,1-1.72,1.71c-1.58.08-1.29-1.33-1.3-2.11S131.19,450.14,131.32,450.11Z"/><path class="cls-1" d="M177.42,448.37c.08,1-.37,1.31-1.28,1.35-1.26.06-1.55-.84-1.6-1.72,0-.53.07-1.63.76-1.53C176.27,446.62,177.55,446.88,177.42,448.37Z"/><path class="cls-1" d="M158.77,440.49c.21-.52-.1-1.33,1.21-1.37,1.55-.05,1.51,1,1.62,1.82.16,1.23-1,1.21-1.72,1.29C158.82,442.33,158.79,441.4,158.77,440.49Z"/><path class="cls-1" d="M120.36,451.77c-.68.27.23,1.64-.83,1.51a2.3,2.3,0,0,1-2-2.15c-.08-.93.72-1.71,1.34-1.57C119.68,449.74,120.11,450.75,120.36,451.77Z"/><path class="cls-1" d="M102.06,449.48c.16-1.53.83-2.25,1.74-2.31,1.42-.1.93,1.37,1.15,2.06s-.74,1.21-1.45,1.19S102,450.08,102.06,449.48Z"/><path class="cls-1" d="M98.1,438.57c-.12.52-.1,1.42-1.38,1.29s-1.55-.67-1.53-1.77c0-.82.32-1.35,1.16-1.18S98.31,436.84,98.1,438.57Z"/><path class="cls-1" d="M188,434a1.77,1.77,0,0,1-1.47,2.05,1.53,1.53,0,0,1-1.43-1.54,1.5,1.5,0,0,1,1.63-1.68C187.69,432.85,188.1,433.23,188,434Z"/><path class="cls-1" d="M160.26,453.6c-.6-1.57.86-1.53,1.58-1.6,1-.09.92.93,1,1.67.06.88-.14,1.5-1.23,1.54S160.1,454.66,160.26,453.6Z"/><path class="cls-1" d="M184.72,440.45a1.16,1.16,0,0,1-1.66-1.12,1.75,1.75,0,0,1,1.66-1.77,1.4,1.4,0,0,1,1.46,1.48A1.25,1.25,0,0,1,184.72,440.45Z"/><path class="cls-1" d="M190.88,430.31c.46.41,1.14.67,1.18,1.59s-.8,1.33-1.2,2c-.75-.54-1.6-1-1.74-2.06C188.94,430.54,190.1,430.73,190.88,430.31Z"/><path class="cls-1" d="M98.81,435.63c.1-.74-.08-1.75.85-1.58s1.84.61,1.8,1.91c0,1-.41,1.22-1.43,1.24C98.55,437.23,98.93,436.28,98.81,435.63Z"/><path class="cls-1" d="M122.95,433.08c.08-.68.12-1.73.94-1.58s2,.48,2,1.68a1.64,1.64,0,0,1-1.57,1.48C123.4,434.7,123,434,122.95,433.08Z"/><path class="cls-1" d="M155.5,447.51c.08.87-.15,1.42-1.24,1.49-1.65.11-1.33-1.26-1.64-2.09-.2-.52.36-1.08.81-.83C154.14,446.47,155.72,445.71,155.5,447.51Z"/><path class="cls-1" d="M189.18,457.25c-1.6,1-1.83-.47-2.41-1.3-.43-.62-.32-1.21.38-1.46a1.72,1.72,0,0,1,2.19.76c.46.74-.19,1.36-.21,2.05Z"/><path class="cls-1" d="M96.32,448.06c.14.86-.22,1.87-1,1.76a1.83,1.83,0,0,1-1.68-2c.07-1.26.83-1,1.6-1.14C96.46,446.58,96.38,447.31,96.32,448.06Z"/><path class="cls-1" d="M190,447.47a1.45,1.45,0,0,1,1.34,1.54c0,1.2-1.11,1.36-1.92,1.42-1,.08-1-.85-1-1.56C188.33,447.86,189.1,447.63,190,447.47Z"/><path class="cls-1" d="M135.12,439.77c.88,0,1.71.35,1.64,1.23-.06.65-.06,1.81-1.34,1.75-1-.05-1.45-.63-1.51-1.61S134.22,439.78,135.12,439.77Z"/><path class="cls-1" d="M177.45,442.11c.08-.58-.34-1.73.82-1.46.58.13,2-.19,1.78,1.37-.12,1-.61,1.72-1.53,1.75S177.09,443.17,177.45,442.11Z"/><path class="cls-1" d="M183.6,442.92c.19-.46-.36-1.32.59-1.25a2.13,2.13,0,0,1,2,2.14c.07.83-.49,1.19-1.28,1.17C183.46,444.95,183.7,443.82,183.6,442.92Z"/><path class="cls-1" d="M112.65,451.81c1,0,1.88.3,1.86,1.43a1.65,1.65,0,0,1-.94,1.59c-.45.17-2.27-1.49-2.29-2C111.26,452.17,111.72,451.83,112.65,451.81Z"/><path class="cls-1" d="M202.48,448.24c-1.1.27-1-.61-1-1.41a1.33,1.33,0,0,1,1.6-1.46c1,.14.95,1.11,1,1.93C204.19,448.51,203.36,448.25,202.48,448.24Z"/><path class="cls-1" d="M168,441.23c.5.44,1.68-.11,1.72,1.23,0,1-.41,1.73-1.39,1.71-.71,0-1.67-.34-1.53-1.37C166.93,442.2,166.89,441.27,168,441.23Z"/><path class="cls-1" d="M118.66,457c.84.07,1.05,1.35,1.64,2.15.2.27-.37.88-1.09.83a2,2,0,0,1-2.07-1.84C117,457.39,117.39,457,118.66,457Z"/><path class="cls-1" d="M114.62,429.52c.3-.84.17-2,1.33-2.06.82,0,1.41,1,1.41,1.49a1.6,1.6,0,0,1-1.68,1.84C114.45,430.83,115.09,429.8,114.62,429.52Z"/><path class="cls-1" d="M147.86,439.8c0,1.13-.48,1.88-1.32,1.7-.53-.11-1.87.1-1.61-1.18a1.82,1.82,0,0,1,1.84-1.63A1,1,0,0,1,147.86,439.8Z"/><path class="cls-1" d="M161.29,433.72c.16-.73.13-1.64,1-1.52s1.92.54,1.92,1.55a1.79,1.79,0,0,1-1.88,1.6C161,435.42,162,434,161.29,433.72Z"/><path class="cls-1" d="M107,436.11c.68.53,2,.38,1.87,1.39a1.84,1.84,0,0,1-1.76,1.52,1.35,1.35,0,0,1-1.33-1.59A1.54,1.54,0,0,1,107,436.11Z"/><path class="cls-1" d="M199.71,458.46c.19,1.16-.57,1.39-1.48,1.45-.74.05-1.22-.29-1.06-1s.27-2.12,1.44-2.15C199.44,456.69,199.8,457.57,199.71,458.46Z"/><path class="cls-1" d="M147.46,455.72c.13.87,0,1.49-1.09,1.32a1.59,1.59,0,0,1-1.52-1.84c0-.71.27-1.33,1-1.12S148,454.17,147.46,455.72Z"/><path class="cls-1" d="M109.85,452.87c0,.83-.08,1.61-.84,1.52s-1.77-.25-1.8-1.56a1.4,1.4,0,0,1,1.35-1.58C109.55,451.23,109.71,452.25,109.85,452.87Z"/><path class="cls-1" d="M152.56,436.77c.11-.67.51-1.48,1.16-1.24s1.72.42,1.66,1.58c0,.78-.16,1.29-1.19,1.35C152.84,438.54,152.83,437.63,152.56,436.77Z"/><path class="cls-1" d="M165,438.12c-.11-.83,0-1.43,1.1-1.29.74.09,1.45.08,1.48,1.12a1.64,1.64,0,0,1-1.43,1.77C165.29,439.82,164.82,439.06,165,438.12Z"/><path class="cls-1" d="M198.74,431.09c.37.31,1.47.42,1.36,1.59-.07.71-.3,1.39-1.32,1.32-1.31-.09-1.27-1-1.31-1.91C197.44,431.5,197.41,430.77,198.74,431.09Z"/><path class="cls-1" d="M130.57,444.78c-.44.38-1,1.23-1.43,1.14-.62-.15-1.75-.22-1.68-1.36s.86-1.44,1.86-1.48S130.18,444,130.57,444.78Z"/><path class="cls-1" d="M111.63,458.49c-1.12,0-1.47-.74-1.45-1.79,0-.59.13-1.21.83-1.12a2,2,0,0,1,1.86,2C112.94,458.58,112.27,458.42,111.63,458.49Z"/><path class="cls-1" d="M183,435.8c-.3.72-.36,1.56-1.06,1.5a1.87,1.87,0,0,1-1.88-1.61c0-.34-.14-1.42,1-1.38S182.41,435.29,183,435.8Z"/><path class="cls-1" d="M102.88,454.62a1.36,1.36,0,0,1-1.43,1.57c-1,.09-1.3-.92-1.51-1.64s.53-1.2,1.2-1.22C102.11,453.31,102.44,454.21,102.88,454.62Z"/><path class="cls-1" d="M176.93,438.93c-.41.85-.18,2-1.21,1.95a1.81,1.81,0,0,1-1.6-1.86c-.05-.89.89-1.4,1.19-1.25C175.86,438.06,176.8,438.19,176.93,438.93Z"/><path class="cls-1" d="M203.39,430c-.95.16-1.52-.25-1.44-1.14a1.42,1.42,0,0,1,1.5-1.46c1,0,1.25.79,1.26,1.44S204.39,430.27,203.39,430Z"/><path class="cls-1" d="M122.59,438.71c-.92.2-1.09-.25-1.12-1.09,0-1.06.49-1.69,1.39-1.69a1.21,1.21,0,0,1,1.22,1.47C124,438.31,123.64,438.9,122.59,438.71Z"/><path class="cls-1" d="M135.84,433.07c.1.93-.61,1.21-1.23,1.22a1.34,1.34,0,0,1-1.38-1.49c0-.78.39-1.46,1.3-1.38S135.78,432.23,135.84,433.07Z"/><path class="cls-1" d="M118.25,438.45c-.12.49-.15,1.41-.92,1.33a1.87,1.87,0,0,1-1.66-1.83c-.07-1,.67-1.1,1.46-1.09C118.14,436.88,118.31,437.5,118.25,438.45Z"/><path class="cls-1" d="M168.67,432.86a1.33,1.33,0,0,1-1.31,1.45,1.15,1.15,0,0,1-1.21-1.29c.12-.62-.09-1.68,1.15-1.68C168.38,431.34,168.59,432,168.67,432.86Z"/><path class="cls-1" d="M94.86,432.5c.9-.19,1.26.26,1.14,1.18-.09.64.27,1.53-1,1.46a1.52,1.52,0,0,1-1.63-1.52C93.3,432.61,94,432.44,94.86,432.5Z"/><path class="cls-1" d="M182.9,454.78c0,.52,0,1.5-.46,1.33-.86-.32-2-.66-2-2,0-.62.17-1.16,1-1.12C182.6,453,183,453.74,182.9,454.78Z"/><path class="cls-1" d="M100.58,442c.79.26,1.88.37,1.83,1.35,0,.67-.89,1.17-1.69,1.24s-1.17-.41-1.16-1.23S99.69,442,100.58,442Z"/><path class="cls-1" d="M107.2,430.76c-1-.38-1.1-1.32-1.38-2.09-.14-.38-.23-1.1.54-1s1.86.27,2.08,1.33S107.89,430.32,107.2,430.76Z"/><path class="cls-1" d="M206,450.3c-.9.28-1.25-.17-1.23-1.11,0-.62,0-1.48.82-1.27s1.87-.09,2,.86C207.62,449.24,207.39,450.55,206,450.3Z"/><path class="cls-1" d="M91.92,449.34c0,.42.25,1.16-.91,1.11s-1.29-.78-1.35-1.55.08-1.52,1-1.4A1.43,1.43,0,0,1,91.92,449.34Z"/><path class="cls-1" d="M142.73,441.58c-.25.58-.6,1.22-1.36,1.13a1.75,1.75,0,0,1-1.49-1.55c0-.21.21-1.23.75-.92S142.58,440.21,142.73,441.58Z"/><path class="cls-1" d="M99.67,448.93c.55.42,1.5.3,1.41,1.38a1.46,1.46,0,0,1-1.34,1.5c-.86,0-.83-1.14-1.15-1.73S99.12,449.16,99.67,448.93Z"/><path class="cls-1" d="M128.48,430c0,.72-.37,1.43-1.08,1.25-.52-.13-1.42-.53-1.43-1.29a1.05,1.05,0,0,1,1.24-1.15C128,428.89,128.53,429,128.48,430Z"/><path class="cls-1" d="M89.17,436.52a1.11,1.11,0,0,1,1.44.93c.06.75-.47,1.31-1.36,1.35s-1.25-.63-1.32-1.32S88.43,436.48,89.17,436.52Z"/><path class="cls-1" d="M94.67,425.6c.77.69,1.81,1.36,1.31,2.58-.24.59-1.35.53-1.61.19C93.68,427.5,93.42,426.42,94.67,425.6Z"/><path class="cls-1" d="M90.11,427.4c-.3.42-.65,1.12-1.27,1.11-1,0-1.23-.95-1.27-1.68s1-1.1,1.41-1A1.59,1.59,0,0,1,90.11,427.4Z"/><path class="cls-1" d="M94.15,443.25c.21.82-.43,1.54-.89,1.51a1.53,1.53,0,0,1-1.36-1.6c0-.84.37-1.17,1.19-1.18S94.21,442.49,94.15,443.25Z"/><path class="cls-1" d="M163.14,702.79c-.85-1.71,1.24-2.43,1.73-3.84.88-2.47,3.72-2.36,5.54-3.64.65-.45,1.73.52,2.54,1,1.81,1,3.43,4.94,2.92,6.9a3.86,3.86,0,0,1-4,3,19.94,19.94,0,0,0-4.78.59C165.3,707.28,163.16,705.2,163.14,702.79Zm10.14-1.46a7.42,7.42,0,0,0-1.73-2.9c-.5-.48-1.05-.41-1,.46a2.89,2.89,0,0,1-.62,2.18c-.36.38-.81,1-1.49.37-.25-.22-.44-1.12-.77-.5-.47.88-2,.92-1.75,2.2.05.31.22.88.81.8a17.43,17.43,0,0,1,4.56-.16A2,2,0,0,0,173.28,701.33Z"/><path class="cls-1" d="M126.39,707.66c-3.73,0-6.26-3.55-5.18-6.55a8.74,8.74,0,0,1,5.46-5.7c1.23-.43,1.78.4,2.62.58s2,0,2.83.74c2.53,2.27,2.7,3,1.08,6.29A8.24,8.24,0,0,1,126.39,707.66Zm-2.66-5.8c.05,2.59,1.84,3.9,4.15,3.11,1.36-.47,3.54-3.49,3.47-4.91,0-.89-.4-1.4-1.37-.76-.76.5-2,.7-2.38.18-1.14-1.49-1.74,0-2.28.37S123.38,700.59,123.73,701.86Z"/><path class="cls-1" d="M147.52,709.14c-2.47.27-3.48-1.47-4.34-2.82-.72-1.13-2.43-1.84-2-3.68a3.73,3.73,0,0,1,.79-2,6.25,6.25,0,0,1,7.09-2.18,11.5,11.5,0,0,0,3.21.34,2.76,2.76,0,0,1,2.88,3.49A7.76,7.76,0,0,1,147.52,709.14Zm-.51-2.33c2.09.05,5.14-2.63,5.47-4.62.1-.58-.14-.68-.67-.74-1.69-.21-3.45-1.23-4.89.64-.19.25-.57-.12-.82-.1a2.13,2.13,0,0,0-1.84.91c-.32.6.42.9.7,1.33a4.76,4.76,0,0,1,.64,1.26C145.86,706.29,146.59,706.45,147,706.81Z"/><path class="cls-1" d="M108.34,704.71c-4,.27-5.84-2.44-5.7-6.25.11-3.12,2.44-3.27,3.94-4.57,2-1.73,4.24-.86,6.12,0,3,1.42,3.23,4.65,1.28,7.32-.91,1.25-1.49,2.48-3.08,3.17C110,704.82,109.14,704.33,108.34,704.71Zm-.79-2.57a5.61,5.61,0,0,0,4.92-3.47c.51-1.16-.16-1.68-.76-2.3s-1.19-.69-1.69.21c-.08.15-.58.16-.86.1-1.85-.41-2.76.68-3.47,2.11-.37.74-.95,1.46-.31,2.33A2,2,0,0,0,107.55,702.14Z"/><path class="cls-1" d="M182.43,699.5c0-2.75,2.12-4.14,3.45-6s3.43-2.08,5.58-2a1.31,1.31,0,0,1,1.28,1,9.06,9.06,0,0,1,.12,8c-1.16,2.32-3.51,2.42-5.67,2.75-1.92.29-3.54-.13-4.46-2.1C182.45,700.57,182.67,700,182.43,699.5Zm8.94-2.33c-1.88.75-2,.79-2.25,0-.36-1.35-1.31-1-2.08-.8-1.06.22-2.12,2.19-1.93,3.3s1,1.26,1.86,1.3A4.5,4.5,0,0,0,191.37,697.18Z"/><path class="cls-1" d="M132.81,366.15A3.49,3.49,0,0,1,135,366a46,46,0,0,0,8,.37,9.29,9.29,0,0,1,4.06.66,3.64,3.64,0,0,0,2.61.14c2.19-.61,4.29.43,6.41.77a107.81,107.81,0,0,0,10.8,1.27c3.09.19,6.26,0,9.1-1.59.32-.18.75-.3,1,0s.13,1.06.11,1.6-.66.76-1.06.76a38.29,38.29,0,0,0-5.15.74l-8.21,1.08c-.43.06-.86.13-1.17-.25a.49.49,0,0,1,0-.45c.27-.45.71-.37,1.14-.3a3.14,3.14,0,0,1,.7.09c.55.23,1.26.35,1.3-.33,0-.36-.94-1.17-1.3-1.09-3.11.72-6-.62-9-.86-4.56-.37-9.09-1-13.68-1.16-2.47-.09-4.93-.48-7.39-.73C133,366.71,132.82,366.57,132.81,366.15Z"/><path class="cls-1" d="M146.15,371.89c-5.94-.35-11.53-.78-17.07-1.57-.85-.12-2.73.42-2.51-.79.3-1.58,1.62,0,2.5.06,1.93.06,3.85.24,5.78.44,3.22.32,6.43.71,9.65,1a4,4,0,0,0,2.16-.16c.53-.25,1.07-.12,1.12.47.07.82-.66.45-1.07.52A2.09,2.09,0,0,1,146.15,371.89Z"/><path class="cls-1" d="M153.39,372c2.36-.83,4.77-.62,7.17-.51C158.24,372.67,155.73,371.55,153.39,372Z"/><path class="cls-1" d="M137.61,377.74c1.77-1.38,3.4.34,5.13,0a.46.46,0,0,1,.48.59c-.1.41-.45.52-.85.48C140.74,378.67,139.27,377.88,137.61,377.74Z"/><path class="cls-1" d="M149.33,378.48c-.22.37-.48.79-1,.59-1.34-.57-2.78.06-4.55-.51,2-.94,3.79.36,5.42-.18Z"/><path class="cls-1" d="M158.38,365.52c-1.11.23-1.94.7-2.86.43-.4-.12-.89-.72-.4-.82C156.08,364.93,157.28,364.34,158.38,365.52Z"/><path class="cls-1" d="M155.3,365.14c.3.78-.44.65-.77.83s-.47,0-.48-.32.3-.43.59-.49Z"/><path class="cls-1" d="M154.64,365.16c.21-.31.43-.57.66,0Z"/><path class="cls-1" d="M173.28,701.33a2,2,0,0,1-2,2.45,17.43,17.43,0,0,0-4.56.16c-.59.08-.76-.49-.81-.8-.22-1.28,1.27-1.32,1.75-2.2.33-.62.52.27.77.5.67.61,1.12,0,1.49-.37a2.89,2.89,0,0,0,.62-2.18c0-.87.53-.94,1-.46A7.42,7.42,0,0,1,173.28,701.33Z"/><path class="cls-1" d="M123.73,701.86c-.35-1.27.89-1.58,1.57-2s1.14-1.86,2.28-.37c.39.51,1.62.32,2.38-.18,1-.64,1.33-.13,1.37.76.07,1.42-2.1,4.45-3.47,4.91C125.57,705.76,123.78,704.44,123.73,701.86Z"/><path class="cls-1" d="M147,706.81c-.42-.36-1.15-.51-1.39-1.32a4.76,4.76,0,0,0-.64-1.26c-.29-.43-1-.74-.7-1.33a2.13,2.13,0,0,1,1.84-.91c.25,0,.63.35.82.1,1.43-1.88,3.2-.85,4.89-.64.52.07.76.16.67.74C152.16,704.18,149.1,706.86,147,706.81Z"/><path class="cls-1" d="M107.55,702.14a2,2,0,0,1-2.17-1c-.63-.87-.05-1.59.31-2.33.71-1.43,1.63-2.52,3.47-2.11.28.06.77,0,.86-.1.5-.89,1.09-.82,1.69-.21s1.26,1.14.76,2.3A5.61,5.61,0,0,1,107.55,702.14Z"/><path class="cls-1" d="M191.37,697.18A4.5,4.5,0,0,1,187,701c-.84,0-1.68-.23-1.86-1.3s.87-3.08,1.93-3.3c.78-.16,1.72-.55,2.08.8C189.33,698,189.49,697.92,191.37,697.18Z"/></svg>