<?xml version="1.0" encoding="utf-8"?>
<!-- Generator: Adobe Illustrator 21.0.2, SVG Export Plug-In . SVG Version: 6.00 Build 0)  -->
<!DOCTYPE svg PUBLIC "-//W3C//DTD SVG 1.1//EN" "http://www.w3.org/Graphics/SVG/1.1/DTD/svg11.dtd">
<svg version="1.1" id="Layer_1" xmlns="http://www.w3.org/2000/svg" xmlns:xlink="http://www.w3.org/1999/xlink" x="0px" y="0px"
	 viewBox="0 0 546 187" enable-background="new 0 0 546 187" xml:space="preserve">
<g>
	<path fill="#333333" d="M134.8,95.1c0,10.3-1.6,19.2-4.8,26.8c-3.2,7.6-7.7,13.9-13.6,19c-5.9,5.1-13,8.9-21.2,11.3
		c-8.3,2.5-17.5,3.7-27.5,3.7c-4.8,0-10.2-0.2-16.3-0.6c-6.1-0.4-11.8-1.2-17.3-2.5V37.5c5.5-1.3,11.3-2.1,17.5-2.4
		c6.2-0.3,11.7-0.5,16.4-0.5c9.9,0,19,1.2,27.2,3.5c8.2,2.3,15.3,6,21.2,11c5.9,5,10.4,11.3,13.6,18.8
		C133.2,75.5,134.8,84.6,134.8,95.1z M55.6,136.7c1.3,0.1,2.9,0.2,5,0.3c2.1,0.1,4.9,0.1,8.4,0.1c14.5,0,25.3-3.7,32.5-11.1
		c7.1-7.4,10.7-17.7,10.7-30.9c0-13.5-3.5-23.8-10.5-31c-7-7.2-17.8-10.8-32.4-10.8c-6.4,0-11,0.2-13.7,0.5V136.7z"/>
	<path fill="#333333" d="M208.4,83.6c-1.7-0.6-4.1-1.2-7.1-1.8c-3-0.6-6.5-0.9-10.5-0.9c-2.3,0-4.7,0.2-7.3,0.7
		c-2.6,0.5-4.4,0.9-5.4,1.2v71.8h-20.7V69.2c4-1.5,9-2.9,15-4.2c6-1.3,12.7-2,20-2c1.4,0,3,0.1,4.8,0.3c1.8,0.2,3.7,0.4,5.5,0.7
		c1.8,0.3,3.6,0.6,5.3,1c1.7,0.4,3.1,0.8,4.1,1.1L208.4,83.6z"/>
	<path fill="#333333" d="M256.2,62.7c6.9,0,12.6,0.9,17.3,2.6c4.7,1.7,8.4,4.1,11.2,7.2c2.8,3.1,4.8,6.8,6,11.2
		c1.2,4.4,1.8,9.2,1.8,14.5v54.3c-3.2,0.7-8,1.5-14.5,2.5c-6.5,1-13.7,1.5-21.8,1.5c-5.4,0-10.3-0.5-14.7-1.5c-4.5-1-8.3-2.7-11.4-5
		c-3.1-2.3-5.6-5.3-7.4-8.9c-1.8-3.7-2.7-8.2-2.7-13.5c0-5.1,1-9.5,3-13c2-3.5,4.7-6.4,8.1-8.7c3.4-2.2,7.4-3.8,11.9-4.8
		c4.5-1,9.2-1.5,14.1-1.5c2.3,0,4.7,0.1,7.2,0.4c2.5,0.3,5.2,0.8,8.1,1.5V98c0-2.4-0.3-4.7-0.9-6.9c-0.6-2.2-1.6-4.1-3-5.7
		c-1.4-1.7-3.3-2.9-5.7-3.9c-2.3-0.9-5.3-1.4-8.8-1.4c-4.8,0-9.2,0.3-13.2,1c-4,0.7-7.3,1.5-9.8,2.4l-2.6-16.8
		c2.6-0.9,6.5-1.8,11.5-2.7C245.2,63.2,250.5,62.7,256.2,62.7z M258,140c6.4,0,11.2-0.3,14.6-1v-23c-1.1-0.3-2.8-0.7-5-1
		c-2.2-0.3-4.6-0.5-7.2-0.5c-2.3,0-4.6,0.2-6.9,0.5c-2.3,0.3-4.5,1-6.3,1.9c-1.9,0.9-3.4,2.2-4.5,3.9c-1.1,1.7-1.7,3.7-1.7,6.3
		c0,4.9,1.5,8.3,4.6,10.2C248.5,139.1,252.7,140,258,140z"/>
	<path fill="#333333" d="M354.4,21.6c4.8,0,9,0.4,12.7,1.3c3.7,0.9,6.4,1.6,8.2,2.3l-3.9,17.1c-1.9-0.9-4.2-1.7-6.8-2.2
		c-2.6-0.6-5.3-0.9-8.3-0.9c-3.3,0-6.1,0.5-8.4,1.5c-2.3,1-4.1,2.3-5.5,4c-1.4,1.7-2.3,3.8-2.9,6.3c-0.6,2.5-0.9,5.1-0.9,8v6h32.6
		v17.3h-32.6v72.3h-20.7v-96c0-11.5,3-20.6,9.1-27.2C333.1,24.9,342.2,21.6,354.4,21.6z"/>
	<path fill="#333333" d="M385.4,41.3l20.7-3.4v27.1H438v17.3h-31.9v36.5c0,7.2,1.1,12.3,3.4,15.4c2.3,3.1,6.2,4.6,11.7,4.6
		c3.8,0,7.1-0.4,10-1.2c2.9-0.8,5.2-1.5,6.9-2.2l3.4,16.4c-2.4,1-5.5,2.1-9.4,3.2c-3.9,1.1-8.5,1.6-13.7,1.6c-6.4,0-11.7-0.9-16-2.6
		c-4.3-1.7-7.7-4.2-10.2-7.5c-2.5-3.3-4.3-7.2-5.3-11.8c-1-4.6-1.5-9.9-1.5-15.9V41.3z"/>
	<path fill="#333333" d="M480.5,139.7c5.5,0,9.5-0.7,12-2c2.5-1.3,3.8-3.6,3.8-6.8c0-3-1.3-5.4-4-7.4c-2.7-1.9-7.1-4.1-13.3-6.3
		c-3.8-1.4-7.2-2.8-10.4-4.4c-3.1-1.5-5.9-3.3-8.1-5.4c-2.3-2.1-4.1-4.5-5.4-7.5c-1.3-2.9-2-6.5-2-10.7c0-8.2,3-14.7,9.1-19.4
		c6.1-4.7,14.3-7.1,24.7-7.1c5.3,0,10.3,0.5,15.1,1.5c4.8,1,8.4,1.9,10.8,2.8L509,83.8c-2.3-1-5.2-2-8.7-2.8
		c-3.5-0.9-7.7-1.3-12.3-1.3c-4.2,0-7.7,0.7-10.3,2.1c-2.6,1.4-3.9,3.6-3.9,6.6c0,1.5,0.3,2.8,0.8,3.9c0.5,1.1,1.4,2.2,2.7,3.2
		c1.3,1,2.9,1.9,5,2.9c2.1,1,4.6,2,7.5,3c4.9,1.8,9.1,3.6,12.5,5.4c3.4,1.8,6.3,3.8,8.5,6c2.2,2.2,3.9,4.8,4.9,7.6
		c1,2.9,1.5,6.3,1.5,10.3c0,8.6-3.2,15.1-9.5,19.4c-6.3,4.4-15.4,6.6-27.2,6.6c-7.9,0-14.2-0.7-19-2c-4.8-1.3-8.2-2.4-10.1-3.2
		l3.6-17.3c3.1,1.3,6.8,2.5,11.1,3.6C470.2,139.1,475,139.7,480.5,139.7z"/>
</g>
</svg>
