<?xml version="1.0" encoding="utf-8"?>
<!-- Generator: Adobe Illustrator 18.0.0, SVG Export Plug-In . SVG Version: 6.00 Build 0)  -->
<!DOCTYPE svg PUBLIC "-//W3C//DTD SVG 1.1//EN" "http://www.w3.org/Graphics/SVG/1.1/DTD/svg11.dtd">
<svg version="1.1" id="Layer_1" xmlns="http://www.w3.org/2000/svg" xmlns:xlink="http://www.w3.org/1999/xlink" x="0px" y="0px"
	 viewBox="0 0 500 500" enable-background="new 0 0 500 500" xml:space="preserve">
<circle fill="none" stroke="#000000" stroke-width="7" stroke-miterlimit="10" cx="250" cy="250" r="244.5"/>
<g>
	<path d="M284.1,170.8c-9.7-7-22.1-10.5-37.2-10.5c-6.1,0-12.1,0.6-18,1.8c-5.9,1.2-11.2,3.3-15.7,6.1c-4.6,2.9-8.3,6.7-11,11.5
		c-2.8,4.8-4.1,10.8-4.1,17.9c0,6.7,2,12.2,6,16.4c4,4.2,9.3,7.6,15.9,10.2c6.6,2.7,14.1,4.8,22.5,6.6c8.4,1.7,16.9,3.6,25.5,5.7
		c8.7,2,17.2,4.4,25.5,7.2c8.4,2.8,15.8,6.5,22.5,11.2c6.6,4.7,11.9,10.6,15.9,17.7c4,7.1,6,16.1,6,26.9c0,11.6-2.6,21.6-7.8,29.8
		s-11.9,15-20,20.2c-8.2,5.2-17.3,9-27.4,11.3c-10.1,2.3-20.1,3.5-30.1,3.5c-12.2,0-23.8-1.5-34.7-4.6c-10.9-3.1-20.5-7.7-28.7-13.9
		c-8.3-6.2-14.8-14.2-19.6-23.8c-4.8-9.7-7.2-21.1-7.2-34.4h27.5c0,9.2,1.8,17.1,5.4,23.7c3.6,6.6,8.3,12.1,14.1,16.4
		c5.8,4.3,12.6,7.4,20.3,9.5c7.7,2,15.7,3.1,23.9,3.1c6.5,0,13.1-0.6,19.7-1.8c6.6-1.2,12.6-3.3,17.9-6.3c5.3-3,9.6-7,12.8-12.1
		c3.3-5.1,4.9-11.6,4.9-19.6c0-7.5-2-13.7-6-18.3c-4-4.7-9.3-8.5-15.9-11.5c-6.6-3-14.1-5.4-22.5-7.2c-8.4-1.8-16.9-3.7-25.5-5.7
		c-8.7-1.9-17.2-4.2-25.5-6.7c-8.4-2.5-15.9-5.9-22.5-10.1c-6.6-4.2-11.9-9.6-15.9-16.2c-4-6.6-6-14.9-6-24.9
		c0-11,2.2-20.5,6.7-28.6c4.5-8.1,10.4-14.7,17.9-19.9c7.4-5.2,15.9-9.1,25.4-11.6c9.5-2.5,19.2-3.8,29.2-3.8
		c11.2,0,21.6,1.3,31.2,4c9.6,2.7,18,6.8,25.2,12.5c7.2,5.7,12.9,12.9,17.1,21.6c4.2,8.7,6.5,19,6.9,31h-27.5
		C299.4,189.2,293.8,177.8,284.1,170.8z"/>
</g>
</svg>
